<?xml version="1.0" encoding="UTF-8"?>
<svg data-bbox="0 0 253.9 127.8" viewBox="0 0 253.9 127.8" xmlns="http://www.w3.org/2000/svg" data-type="shape">
    <g>
        <path d="M42.3 37.1H22.9v-7.2h28.7v6L35.9 70.3h-8.8l15.2-33.2z"/>
        <path d="M87.8 29.8h14.1c4.4 0 8.2.8 11.5 2.4 3.3 1.6 5.8 3.9 7.6 7 1.8 3 2.7 6.6 2.7 10.7 0 6.7-2 11.8-5.9 15.3-3.9 3.5-9.4 5.2-16.4 5.2H87.8V29.8zM101.9 63c4.1 0 7.3-1.2 9.5-3.5s3.3-5.5 3.3-9.6c0-2.4-.5-4.6-1.4-6.5-1-1.9-2.4-3.4-4.2-4.5-1.9-1.1-4-1.6-6.5-1.6h-5.9V63h5.2z"/>
        <path d="M134.3 29.8h8.8v40.5h-8.8V29.8z"/>
        <path d="M170.1 29.8h8.6l16.2 40.5h-9l-3.5-8.8h-16.1l-3.5 8.8h-9l16.3-40.5zm10 24.7-5.7-15.4-5.7 15.4h11.4z"/>
        <path d="M207.7 70.5c-2.4-.5-4.4-1.1-6-1.9v-7.8c2 1 4.2 1.8 6.4 2.3 2.2.5 4.3.8 6.3.8 2.2 0 3.9-.4 5.1-1.2 1.2-.8 1.7-1.9 1.7-3.2 0-1-.3-1.9-.9-2.5-.6-.7-1.4-1.3-2.5-1.9-1.1-.6-2.8-1.3-5.1-2.2-3.8-1.5-6.5-3.3-8.2-5.2-1.7-1.9-2.5-4.3-2.5-7.1 0-2.3.6-4.3 1.9-6.1 1.2-1.8 3-3.1 5.2-4.1 2.2-1 4.8-1.4 7.8-1.4 2.4 0 4.5.2 6.4.6 1.9.4 3.7 1 5.4 1.8v7.5c-3.4-1.7-6.8-2.5-10.2-2.5-2.2 0-3.9.4-5.1 1.1-1.2.8-1.9 1.8-1.9 3.2 0 1 .3 1.8.9 2.5.6.7 1.4 1.2 2.4 1.7s2.7 1.2 5.1 2.2c2.7 1.2 4.9 2.3 6.4 3.3 1.5 1.1 2.7 2.3 3.4 3.8.7 1.4 1.1 3.2 1.1 5.4 0 3.7-1.3 6.5-4 8.6s-6.6 3.1-11.9 3.1c-2.3-.1-4.7-.3-7.2-.8z"/>
        <path d="M27.4 79.9h6.2c2 0 3.8.4 5.3 1.1s2.6 1.8 3.4 3.2c.8 1.4 1.2 3 1.2 4.9 0 3.1-.9 5.4-2.7 7-1.8 1.6-4.3 2.4-7.5 2.4h-5.9V79.9zm6 15.8c2.2 0 3.8-.6 5-1.7 1.2-1.2 1.7-2.8 1.7-4.9 0-1.3-.3-2.4-.8-3.3-.5-1-1.2-1.7-2.2-2.3-1-.5-2.1-.8-3.4-.8h-3v13h2.7z"/>
        <path d="M48.9 79.9h12.6v2.8h-9.2v5.1h6.8v2.8h-6.8v5.1h9.2v2.8H48.9V79.9z"/>
        <path d="M83 97.7c-1.5-.8-2.7-1.9-3.5-3.4-.8-1.5-1.2-3.2-1.2-5.1s.4-3.7 1.2-5.1c.8-1.5 2-2.6 3.5-3.4 1.5-.8 3.2-1.2 5.2-1.2 1.3 0 2.5.1 3.6.4 1 .3 2 .7 2.8 1.4v3.2c-.8-.7-1.7-1.2-2.7-1.5-1-.3-2.2-.5-3.4-.5s-2.5.3-3.5.9c-1 .5-1.9 1.3-2.5 2.3-.6 1-.9 2.2-.9 3.5 0 1.3.3 2.5.9 3.5.6 1 1.4 1.8 2.4 2.3 1 .5 2.2.8 3.5.8 1.4 0 2.5-.2 3.4-.7V91h-3.1v-2.7H95V97c-1.6 1.3-3.9 1.9-6.9 1.9-1.9 0-3.6-.4-5.1-1.2z"/>
        <path d="M107.3 79.9h3.3l7.4 18.6h-3.4l-1.7-4.3H105l-1.7 4.3h-3.5l7.5-18.6zm4.6 11.5-3-7.9-3 7.9h6z"/>
        <path d="M123.3 79.9h7.8c2.1 0 3.6.5 4.8 1.5 1.1 1 1.7 2.5 1.7 4.4 0 1.4-.3 2.5-1 3.5s-1.6 1.6-2.9 2l3.8 7.2H134l-3.6-6.8h-3.7v6.8h-3.4V79.9zm7.1 9c1.1 0 2-.3 2.7-.8.7-.5 1-1.3 1-2.3 0-2.1-1.2-3.1-3.7-3.1h-3.8v6.2h3.8z"/>
        <path d="M148.5 79.9h3.3l7.4 18.6h-3.4l-1.7-4.3h-7.9l-1.7 4.3H141l7.5-18.6zm4.6 11.5-3-7.9-3 7.9h6z"/>
        <path d="M164.5 79.9h3.2l8.7 13v-13h3.4v18.6h-3.2l-8.7-13v13h-3.4V79.9z"/>
        <path d="M190.2 82.7h-5.6v-2.8h14.6v2.8h-5.6v15.8h-3.4V82.7z"/>
        <path d="M203.9 79.9h3.4v18.6h-3.4V79.9z"/>
        <path d="M220.1 79.9h3.3l7.4 18.6h-3.4l-1.7-4.3h-7.9l-1.7 4.3h-3.5l7.5-18.6zm4.6 11.5-3-7.9-3 7.9h6z"/>
        <path d="M6.2 22.1v-5.6c0-5.9 4.7-10.6 10.6-10.6h25.9V0H16.8C7.5 0 0 7.5 0 16.8v5.3h6.2z"/>
        <path d="M211.2 5.9h25.9c5.9 0 10.6 4.7 10.6 10.6v5.6h6.2v-5.3c0-9.3-7.5-16.8-16.8-16.8h-25.9v5.9z"/>
        <path d="M42.7 121.9H16.8c-5.9 0-10.6-4.7-10.6-10.6v-5.6H0v5.3c0 9.3 7.5 16.8 16.8 16.8h25.9v-5.9z"/>
        <path d="M247.7 105.7v5.6c0 5.9-4.7 10.6-10.6 10.6h-25.9v5.9h25.9c9.3 0 16.8-7.5 16.8-16.8v-5.3h-6.2z"/>
    </g>
</svg>
