<svg xmlns="http://www.w3.org/2000/svg" xmlns:xlink="http://www.w3.org/1999/xlink" width="1000" zoomAndPan="magnify" viewBox="0 0 750 187.499995" height="250" preserveAspectRatio="xMidYMid meet" version="1.0"><defs><g/><clipPath id="ac61dd035f"><path d="M 105 115 L 171 115 L 171 181.128906 L 105 181.128906 Z M 105 115 " clip-rule="nonzero"/></clipPath><clipPath id="9dd2e2514e"><path d="M 42 115 L 108 115 L 108 181.128906 L 42 181.128906 Z M 42 115 " clip-rule="nonzero"/></clipPath><clipPath id="c104b4305b"><path d="M 185 75 L 208.09375 75 L 208.09375 171 L 185 171 Z M 185 75 " clip-rule="nonzero"/></clipPath><clipPath id="529e56ed18"><path d="M 50 6.09375 L 162 6.09375 L 162 24 L 50 24 Z M 50 6.09375 " clip-rule="nonzero"/></clipPath><clipPath id="245bbb3546"><path d="M 4.636719 75 L 28 75 L 28 171 L 4.636719 171 Z M 4.636719 75 " clip-rule="nonzero"/></clipPath><clipPath id="6c3055c397"><rect x="0" width="364" y="0" height="115"/></clipPath><clipPath id="0ced76e231"><path d="M 135 29 L 174.496094 29 L 174.496094 66 L 135 66 Z M 135 29 " clip-rule="nonzero"/></clipPath><clipPath id="503c32658d"><rect x="0" width="175" y="0" height="79"/></clipPath></defs><path fill="#d7c9e3" d="M 106.335938 116.871094 L 84.808594 116.871094 C 61.226562 116.871094 42.09375 97.726562 42.09375 74.125 L 42.09375 52.578125 L 64.25 52.578125 C 87.492188 52.578125 106.335938 71.4375 106.335938 94.699219 Z M 106.335938 116.871094 " fill-opacity="1" fill-rule="nonzero"/><path fill="#ad98bd" d="M 106.335938 117.5 C 106.164062 117.5 105.992188 117.441406 105.878906 117.328125 L 68.707031 80.125 C 68.476562 79.894531 68.476562 79.496094 68.707031 79.210938 C 68.933594 78.980469 69.332031 78.980469 69.617188 79.210938 L 106.792969 116.414062 C 107.019531 116.644531 107.019531 117.042969 106.792969 117.328125 C 106.679688 117.441406 106.507812 117.5 106.335938 117.5 Z M 106.335938 117.5 " fill-opacity="1" fill-rule="nonzero"/><path fill="#ad98bd" d="M 78.699219 89.839844 L 69.164062 89.839844 C 68.820312 89.839844 68.535156 89.554688 68.535156 89.210938 C 68.535156 88.867188 68.820312 88.582031 69.164062 88.582031 L 78.640625 88.582031 C 78.984375 88.582031 79.269531 88.867188 79.269531 89.210938 C 79.269531 89.554688 79.042969 89.839844 78.699219 89.839844 Z M 78.699219 89.839844 " fill-opacity="1" fill-rule="nonzero"/><path fill="#ad98bd" d="M 78.699219 89.839844 C 78.355469 89.839844 78.070312 89.554688 78.070312 89.210938 L 78.070312 79.722656 C 78.070312 79.382812 78.355469 79.09375 78.699219 79.09375 C 79.042969 79.09375 79.328125 79.382812 79.328125 79.722656 L 79.328125 89.210938 C 79.328125 89.554688 79.042969 89.839844 78.699219 89.839844 Z M 78.699219 89.839844 " fill-opacity="1" fill-rule="nonzero"/><path fill="#ad98bd" d="M 86.179688 97.328125 C 85.835938 97.328125 85.550781 97.039062 85.550781 96.699219 L 85.550781 87.210938 C 85.550781 86.867188 85.835938 86.582031 86.179688 86.582031 C 86.523438 86.582031 86.808594 86.867188 86.808594 87.210938 L 86.808594 96.699219 C 86.808594 97.039062 86.523438 97.328125 86.179688 97.328125 Z M 86.179688 97.328125 " fill-opacity="1" fill-rule="nonzero"/><path fill="#ad98bd" d="M 93.714844 104.871094 C 93.375 104.871094 93.089844 104.585938 93.089844 104.242188 L 93.089844 94.753906 C 93.089844 94.410156 93.375 94.125 93.714844 94.125 C 94.058594 94.125 94.34375 94.410156 94.34375 94.753906 L 94.34375 104.242188 C 94.34375 104.585938 94.058594 104.871094 93.714844 104.871094 Z M 93.714844 104.871094 " fill-opacity="1" fill-rule="nonzero"/><path fill="#ad98bd" d="M 86.179688 97.328125 L 76.699219 97.328125 C 76.355469 97.328125 76.070312 97.039062 76.070312 96.699219 C 76.070312 96.355469 76.355469 96.070312 76.699219 96.070312 L 86.179688 96.070312 C 86.523438 96.070312 86.808594 96.355469 86.808594 96.699219 C 86.808594 97.039062 86.523438 97.328125 86.179688 97.328125 Z M 86.179688 97.328125 " fill-opacity="1" fill-rule="nonzero"/><path fill="#ad98bd" d="M 93.714844 104.871094 L 84.238281 104.871094 C 83.894531 104.871094 83.609375 104.585938 83.609375 104.242188 C 83.609375 103.898438 83.894531 103.613281 84.238281 103.613281 L 93.714844 103.613281 C 94.058594 103.613281 94.34375 103.898438 94.34375 104.242188 C 94.34375 104.585938 94.058594 104.871094 93.714844 104.871094 Z M 93.714844 104.871094 " fill-opacity="1" fill-rule="nonzero"/><path fill="#d7c9e3" d="M 106.335938 116.871094 L 127.863281 116.871094 C 151.449219 116.871094 170.578125 97.726562 170.578125 74.125 L 170.578125 52.578125 L 148.421875 52.578125 C 125.179688 52.578125 106.335938 71.4375 106.335938 94.699219 Z M 106.335938 116.871094 " fill-opacity="1" fill-rule="nonzero"/><path fill="#ad98bd" d="M 106.335938 117.5 C 106.164062 117.5 105.992188 117.441406 105.878906 117.328125 C 105.652344 117.101562 105.652344 116.699219 105.878906 116.414062 L 143.054688 79.210938 C 143.28125 78.980469 143.679688 78.980469 143.96875 79.210938 C 144.195312 79.4375 144.195312 79.839844 143.96875 80.125 L 106.792969 117.328125 C 106.679688 117.441406 106.507812 117.5 106.335938 117.5 Z M 106.335938 117.5 " fill-opacity="1" fill-rule="nonzero"/><path fill="#ad98bd" d="M 143.511719 89.839844 L 134.03125 89.839844 C 133.6875 89.839844 133.402344 89.554688 133.402344 89.210938 C 133.402344 88.867188 133.6875 88.582031 134.03125 88.582031 L 143.511719 88.582031 C 143.851562 88.582031 144.136719 88.867188 144.136719 89.210938 C 144.136719 89.554688 143.851562 89.839844 143.511719 89.839844 Z M 143.511719 89.839844 " fill-opacity="1" fill-rule="nonzero"/><path fill="#ad98bd" d="M 134.03125 89.839844 C 133.6875 89.839844 133.402344 89.554688 133.402344 89.210938 L 133.402344 79.722656 C 133.402344 79.382812 133.6875 79.09375 134.03125 79.09375 C 134.375 79.09375 134.660156 79.382812 134.660156 79.722656 L 134.660156 89.210938 C 134.660156 89.554688 134.375 89.839844 134.03125 89.839844 Z M 134.03125 89.839844 " fill-opacity="1" fill-rule="nonzero"/><path fill="#ad98bd" d="M 126.550781 97.328125 C 126.207031 97.328125 125.921875 97.039062 125.921875 96.699219 L 125.921875 87.210938 C 125.921875 86.867188 126.207031 86.582031 126.550781 86.582031 C 126.894531 86.582031 127.179688 86.867188 127.179688 87.210938 L 127.179688 96.699219 C 127.179688 97.039062 126.894531 97.328125 126.550781 97.328125 Z M 126.550781 97.328125 " fill-opacity="1" fill-rule="nonzero"/><path fill="#ad98bd" d="M 119.011719 104.871094 C 118.671875 104.871094 118.386719 104.585938 118.386719 104.242188 L 118.386719 94.753906 C 118.386719 94.410156 118.671875 94.125 119.011719 94.125 C 119.355469 94.125 119.640625 94.410156 119.640625 94.753906 L 119.640625 104.242188 C 119.640625 104.585938 119.355469 104.871094 119.011719 104.871094 Z M 119.011719 104.871094 " fill-opacity="1" fill-rule="nonzero"/><path fill="#ad98bd" d="M 136.03125 97.328125 L 126.550781 97.328125 C 126.207031 97.328125 125.921875 97.039062 125.921875 96.699219 C 125.921875 96.355469 126.207031 96.070312 126.550781 96.070312 L 136.03125 96.070312 C 136.371094 96.070312 136.65625 96.355469 136.65625 96.699219 C 136.65625 97.039062 136.371094 97.328125 136.03125 97.328125 Z M 136.03125 97.328125 " fill-opacity="1" fill-rule="nonzero"/><path fill="#ad98bd" d="M 128.492188 104.871094 L 119.011719 104.871094 C 118.671875 104.871094 118.386719 104.585938 118.386719 104.242188 C 118.386719 103.898438 118.671875 103.613281 119.011719 103.613281 L 128.492188 103.613281 C 128.835938 103.613281 129.121094 103.898438 129.121094 104.242188 C 129.121094 104.585938 128.835938 104.871094 128.492188 104.871094 Z M 128.492188 104.871094 " fill-opacity="1" fill-rule="nonzero"/><path fill="#b5e0df" d="M 106.335938 116.871094 L 117.015625 116.871094 C 140.597656 116.871094 159.726562 136.015625 159.726562 159.617188 L 159.726562 170.304688 L 148.421875 170.304688 C 125.179688 170.304688 106.335938 151.445312 106.335938 128.1875 Z M 106.335938 116.871094 " fill-opacity="1" fill-rule="nonzero"/><path fill="#8db4b5" d="M 137.230469 148.417969 C 137.058594 148.417969 136.886719 148.359375 136.773438 148.246094 L 105.878906 117.328125 C 105.652344 117.101562 105.652344 116.699219 105.878906 116.414062 C 106.109375 116.183594 106.507812 116.183594 106.792969 116.414062 L 137.6875 147.332031 C 137.914062 147.558594 137.914062 147.960938 137.6875 148.246094 C 137.570312 148.359375 137.398438 148.417969 137.230469 148.417969 Z M 137.230469 148.417969 " fill-opacity="1" fill-rule="nonzero"/><path fill="#8db4b5" d="M 137.230469 140.472656 L 129.347656 140.472656 C 129.007812 140.472656 128.71875 140.1875 128.71875 139.84375 C 128.71875 139.503906 129.007812 139.214844 129.347656 139.214844 L 137.230469 139.214844 C 137.570312 139.214844 137.855469 139.503906 137.855469 139.84375 C 137.855469 140.1875 137.570312 140.472656 137.230469 140.472656 Z M 137.230469 140.472656 " fill-opacity="1" fill-rule="nonzero"/><path fill="#8db4b5" d="M 129.347656 148.359375 C 129.007812 148.359375 128.71875 148.074219 128.71875 147.730469 L 128.71875 139.84375 C 128.71875 139.503906 129.007812 139.214844 129.347656 139.214844 C 129.691406 139.214844 129.976562 139.503906 129.976562 139.84375 L 129.976562 147.730469 C 129.976562 148.074219 129.691406 148.359375 129.347656 148.359375 Z M 129.347656 148.359375 " fill-opacity="1" fill-rule="nonzero"/><path fill="#8db4b5" d="M 123.125 142.132812 C 122.78125 142.132812 122.496094 141.84375 122.496094 141.503906 L 122.496094 133.617188 C 122.496094 133.273438 122.78125 132.988281 123.125 132.988281 C 123.46875 132.988281 123.753906 133.273438 123.753906 133.617188 L 123.753906 141.503906 C 123.753906 141.84375 123.46875 142.132812 123.125 142.132812 Z M 123.125 142.132812 " fill-opacity="1" fill-rule="nonzero"/><path fill="#8db4b5" d="M 116.84375 135.84375 C 116.5 135.84375 116.214844 135.558594 116.214844 135.214844 L 116.214844 127.328125 C 116.214844 126.988281 116.5 126.699219 116.84375 126.699219 C 117.1875 126.699219 117.472656 126.988281 117.472656 127.328125 L 117.472656 135.214844 C 117.472656 135.558594 117.1875 135.84375 116.84375 135.84375 Z M 116.84375 135.84375 " fill-opacity="1" fill-rule="nonzero"/><path fill="#8db4b5" d="M 131.003906 134.246094 L 123.125 134.246094 C 122.78125 134.246094 122.496094 133.957031 122.496094 133.617188 C 122.496094 133.273438 122.78125 132.988281 123.125 132.988281 L 131.003906 132.988281 C 131.347656 132.988281 131.632812 133.273438 131.632812 133.617188 C 131.632812 133.957031 131.347656 134.246094 131.003906 134.246094 Z M 131.003906 134.246094 " fill-opacity="1" fill-rule="nonzero"/><path fill="#8db4b5" d="M 124.722656 127.957031 L 116.84375 127.957031 C 116.5 127.957031 116.214844 127.671875 116.214844 127.328125 C 116.214844 126.988281 116.5 126.699219 116.84375 126.699219 L 124.722656 126.699219 C 125.066406 126.699219 125.351562 126.988281 125.351562 127.328125 C 125.351562 127.671875 125.066406 127.957031 124.722656 127.957031 Z M 124.722656 127.957031 " fill-opacity="1" fill-rule="nonzero"/><path fill="#b5e0df" d="M 106.335938 116.871094 L 95.65625 116.871094 C 72.074219 116.871094 52.945312 136.015625 52.945312 159.617188 L 52.945312 170.304688 L 64.25 170.304688 C 87.492188 170.304688 106.335938 151.445312 106.335938 128.1875 Z M 106.335938 116.871094 " fill-opacity="1" fill-rule="nonzero"/><path fill="#8db4b5" d="M 75.445312 148.417969 C 75.273438 148.417969 75.101562 148.359375 74.988281 148.246094 C 74.757812 148.015625 74.757812 147.617188 74.988281 147.332031 L 105.878906 116.414062 C 106.109375 116.183594 106.507812 116.183594 106.792969 116.414062 C 107.019531 116.644531 107.019531 117.042969 106.792969 117.328125 L 75.898438 148.246094 C 75.785156 148.359375 75.613281 148.417969 75.445312 148.417969 Z M 75.445312 148.417969 " fill-opacity="1" fill-rule="nonzero"/><path fill="#8db4b5" d="M 83.324219 140.472656 L 75.445312 140.472656 C 75.101562 140.472656 74.816406 140.1875 74.816406 139.84375 C 74.816406 139.503906 75.101562 139.214844 75.445312 139.214844 L 83.324219 139.214844 C 83.667969 139.214844 83.953125 139.503906 83.953125 139.84375 C 83.953125 140.1875 83.722656 140.472656 83.324219 140.472656 Z M 83.324219 140.472656 " fill-opacity="1" fill-rule="nonzero"/><path fill="#8db4b5" d="M 83.324219 148.359375 C 82.980469 148.359375 82.695312 148.074219 82.695312 147.730469 L 82.695312 139.84375 C 82.695312 139.503906 82.980469 139.214844 83.324219 139.214844 C 83.667969 139.214844 83.953125 139.503906 83.953125 139.84375 L 83.953125 147.730469 C 84.007812 148.074219 83.722656 148.359375 83.324219 148.359375 Z M 83.324219 148.359375 " fill-opacity="1" fill-rule="nonzero"/><path fill="#8db4b5" d="M 89.605469 142.132812 C 89.261719 142.132812 88.976562 141.84375 88.976562 141.503906 L 88.976562 133.617188 C 88.976562 133.273438 89.261719 132.988281 89.605469 132.988281 C 89.949219 132.988281 90.234375 133.273438 90.234375 133.617188 L 90.234375 141.503906 C 90.234375 141.84375 89.949219 142.132812 89.605469 142.132812 Z M 89.605469 142.132812 " fill-opacity="1" fill-rule="nonzero"/><path fill="#8db4b5" d="M 95.828125 135.84375 C 95.488281 135.84375 95.199219 135.558594 95.199219 135.214844 L 95.199219 127.328125 C 95.199219 126.988281 95.488281 126.699219 95.828125 126.699219 C 96.171875 126.699219 96.457031 126.988281 96.457031 127.328125 L 96.457031 135.214844 C 96.515625 135.558594 96.230469 135.84375 95.828125 135.84375 Z M 95.828125 135.84375 " fill-opacity="1" fill-rule="nonzero"/><path fill="#8db4b5" d="M 89.605469 134.246094 L 81.726562 134.246094 C 81.382812 134.246094 81.097656 133.957031 81.097656 133.617188 C 81.097656 133.273438 81.382812 132.988281 81.726562 132.988281 L 89.605469 132.988281 C 89.949219 132.988281 90.234375 133.273438 90.234375 133.617188 C 90.234375 133.957031 89.949219 134.246094 89.605469 134.246094 Z M 89.605469 134.246094 " fill-opacity="1" fill-rule="nonzero"/><path fill="#8db4b5" d="M 95.828125 127.957031 L 87.949219 127.957031 C 87.605469 127.957031 87.320312 127.671875 87.320312 127.328125 C 87.320312 126.988281 87.605469 126.699219 87.949219 126.699219 L 95.828125 126.699219 C 96.171875 126.699219 96.457031 126.988281 96.457031 127.328125 C 96.457031 127.671875 96.230469 127.957031 95.828125 127.957031 Z M 95.828125 127.957031 " fill-opacity="1" fill-rule="nonzero"/><path fill="#0d7874" d="M 107.648438 118.128906 L 74.757812 118.128906 C 50.488281 118.128906 30.789062 98.355469 30.789062 74.125 L 30.789062 41.207031 L 64.308594 41.207031 C 88.234375 41.207031 107.707031 60.695312 107.707031 84.640625 L 107.707031 118.128906 Z M 33.300781 43.71875 L 33.300781 74.125 C 33.300781 96.984375 51.917969 115.613281 74.757812 115.613281 L 105.078125 115.613281 L 105.078125 84.640625 C 105.078125 62.121094 86.75 43.777344 64.25 43.777344 L 33.300781 43.777344 Z M 33.300781 43.71875 " fill-opacity="1" fill-rule="nonzero"/><path fill="#0d7874" d="M 137.972656 118.128906 L 105.078125 118.128906 L 105.078125 84.582031 C 105.078125 60.636719 124.550781 41.148438 148.476562 41.148438 L 181.996094 41.148438 L 181.996094 74.125 C 181.941406 98.355469 162.238281 118.128906 137.972656 118.128906 Z M 107.648438 115.558594 L 137.972656 115.558594 C 160.8125 115.558594 179.429688 96.925781 179.429688 74.066406 L 179.429688 43.71875 L 148.476562 43.71875 C 125.980469 43.71875 107.648438 62.066406 107.648438 84.582031 Z M 107.648438 115.558594 " fill-opacity="1" fill-rule="nonzero"/><g clip-path="url(#ac61dd035f)"><path fill="#0d7874" d="M 170.578125 181.105469 L 148.476562 181.105469 C 124.550781 181.105469 105.078125 161.617188 105.078125 137.671875 L 105.078125 115.558594 L 126.609375 115.558594 C 150.875 115.558594 170.578125 135.332031 170.578125 159.5625 Z M 107.648438 118.128906 L 107.648438 137.671875 C 107.648438 160.191406 125.980469 178.535156 148.476562 178.535156 L 168.007812 178.535156 L 168.007812 159.5625 C 168.007812 136.703125 149.390625 118.070312 126.550781 118.070312 L 107.648438 118.070312 Z M 107.648438 118.128906 " fill-opacity="1" fill-rule="nonzero"/></g><g clip-path="url(#9dd2e2514e)"><path fill="#0d7874" d="M 64.25 181.105469 L 42.152344 181.105469 L 42.152344 159.5625 C 42.152344 135.273438 61.910156 115.558594 86.121094 115.558594 L 107.648438 115.558594 L 107.648438 137.671875 C 107.648438 161.617188 88.175781 181.105469 64.25 181.105469 Z M 44.664062 178.59375 L 64.195312 178.59375 C 86.691406 178.59375 105.023438 160.246094 105.023438 137.730469 L 105.023438 118.128906 L 86.066406 118.128906 C 63.222656 118.128906 44.609375 136.757812 44.609375 159.617188 L 44.609375 178.59375 Z M 44.664062 178.59375 " fill-opacity="1" fill-rule="nonzero"/></g><path fill="#0d7874" d="M 169.492188 119.214844 C 169.433594 119.214844 169.320312 119.214844 169.261719 119.15625 L 169.09375 119.101562 C 169.035156 119.101562 169.035156 119.042969 168.976562 119.042969 C 168.921875 118.984375 168.863281 118.984375 168.808594 118.929688 C 168.75 118.871094 168.75 118.8125 168.691406 118.757812 C 168.636719 118.699219 168.636719 118.644531 168.636719 118.527344 L 168.636719 118.355469 C 168.636719 118.300781 168.636719 118.242188 168.691406 118.242188 C 168.808594 117.898438 170.863281 112.242188 176.171875 109.898438 C 179.597656 108.414062 183.539062 108.640625 187.878906 110.585938 C 188.164062 110.699219 188.335938 111.042969 188.222656 111.386719 C 188.164062 111.554688 186.621094 115.84375 182.511719 118.472656 C 182.339844 118.585938 182.054688 118.585938 181.882812 118.472656 C 176.574219 115.5 170.863281 118.472656 169.777344 119.042969 C 169.71875 119.15625 169.605469 119.214844 169.492188 119.214844 Z M 180.914062 110.242188 C 179.429688 110.242188 178 110.527344 176.6875 111.097656 C 173.375 112.527344 171.433594 115.5 170.519531 117.269531 L 178.230469 114.128906 C 178.570312 114.015625 178.914062 114.128906 179.085938 114.472656 C 179.140625 114.527344 179.140625 114.640625 179.140625 114.699219 C 179.140625 114.929688 178.972656 115.214844 178.742188 115.269531 L 177.085938 115.957031 C 178.742188 116.015625 180.457031 116.355469 182.167969 117.214844 C 184.851562 115.386719 186.28125 112.699219 186.792969 111.554688 C 184.738281 110.699219 182.738281 110.242188 180.914062 110.242188 Z M 180.914062 110.242188 " fill-opacity="1" fill-rule="nonzero"/><path fill="#0d7874" d="M 169.320312 119.101562 C 169.09375 119.101562 168.808594 118.929688 168.75 118.699219 C 168.636719 118.355469 168.75 118.015625 169.09375 117.84375 L 178.230469 114.128906 C 178.570312 114.015625 178.914062 114.128906 179.085938 114.472656 C 179.199219 114.8125 179.085938 115.15625 178.742188 115.328125 L 169.550781 119.101562 Z M 169.320312 119.101562 " fill-opacity="1" fill-rule="nonzero"/><path fill="#0d7874" d="M 181.082031 127.15625 C 180.113281 127.15625 179.085938 127.042969 178 126.816406 C 174.289062 125.902344 171.148438 123.273438 168.691406 119.042969 C 168.578125 118.8125 168.578125 118.527344 168.75 118.300781 L 168.921875 118.128906 L 169.148438 118.015625 C 170.347656 117.328125 176.574219 114.128906 182.511719 117.441406 C 184.96875 118.8125 187.078125 121.101562 188.679688 124.359375 C 188.851562 124.644531 188.734375 125.042969 188.449219 125.214844 C 188.335938 125.214844 185.195312 127.15625 181.082031 127.15625 Z M 170.75 119.785156 C 172.859375 122.871094 175.429688 124.816406 178.34375 125.558594 C 182.339844 126.53125 185.996094 125.042969 187.308594 124.359375 C 185.824219 121.671875 184.054688 119.730469 181.941406 118.527344 C 177.714844 116.183594 173.203125 117.558594 171.035156 118.527344 L 179.027344 120.929688 C 179.3125 120.984375 179.484375 121.273438 179.484375 121.558594 L 179.484375 121.730469 C 179.371094 122.070312 179.027344 122.242188 178.683594 122.128906 Z M 170.75 119.785156 " fill-opacity="1" fill-rule="nonzero"/><path fill="#0d7874" d="M 178.800781 122.1875 L 178.628906 122.1875 L 169.09375 119.328125 C 168.75 119.214844 168.578125 118.871094 168.691406 118.527344 C 168.808594 118.1875 169.148438 118.015625 169.492188 118.128906 L 179.027344 120.984375 C 179.371094 121.101562 179.542969 121.441406 179.429688 121.785156 C 179.371094 122.015625 179.085938 122.1875 178.800781 122.1875 Z M 178.800781 122.1875 " fill-opacity="1" fill-rule="nonzero"/><path fill="#0d7874" d="M 43.179688 119.214844 C 43.066406 119.214844 42.953125 119.214844 42.894531 119.15625 C 41.808594 118.527344 36.101562 115.613281 30.789062 118.585938 C 30.5625 118.699219 30.332031 118.699219 30.160156 118.585938 C 26.050781 115.957031 24.507812 111.671875 24.449219 111.5 C 24.335938 111.214844 24.507812 110.8125 24.792969 110.699219 C 29.191406 108.757812 33.128906 108.527344 36.5 110.011719 C 41.867188 112.355469 43.867188 118.015625 43.980469 118.355469 C 43.980469 118.414062 43.980469 118.414062 44.035156 118.472656 L 44.035156 118.585938 C 44.035156 118.644531 44.035156 118.757812 43.980469 118.8125 C 43.980469 118.871094 43.921875 118.929688 43.867188 118.984375 C 43.808594 119.042969 43.75 119.101562 43.695312 119.101562 C 43.636719 119.101562 43.636719 119.15625 43.582031 119.15625 L 43.410156 119.214844 C 43.351562 119.15625 43.292969 119.214844 43.179688 119.214844 Z M 34.214844 114.070312 C 34.273438 114.070312 34.386719 114.070312 34.445312 114.128906 L 42.152344 117.328125 C 41.238281 115.558594 39.296875 112.585938 35.984375 111.15625 C 33.074219 109.898438 29.648438 110.011719 25.878906 111.613281 C 26.390625 112.757812 27.820312 115.441406 30.503906 117.269531 C 32.214844 116.414062 33.988281 116.070312 35.585938 116.015625 L 33.929688 115.328125 C 33.703125 115.214844 33.53125 114.984375 33.53125 114.757812 C 33.53125 114.699219 33.53125 114.585938 33.585938 114.527344 C 33.757812 114.183594 33.988281 114.070312 34.214844 114.070312 Z M 34.214844 114.070312 " fill-opacity="1" fill-rule="nonzero"/><path fill="#0d7874" d="M 43.410156 119.101562 C 43.351562 119.101562 43.238281 119.101562 43.179688 119.042969 L 33.988281 115.269531 C 33.644531 115.15625 33.53125 114.757812 33.644531 114.414062 C 33.757812 114.070312 34.15625 113.957031 34.5 114.070312 L 43.695312 117.84375 C 44.035156 117.957031 44.152344 118.355469 44.035156 118.699219 C 43.921875 118.984375 43.636719 119.101562 43.410156 119.101562 Z M 43.410156 119.101562 " fill-opacity="1" fill-rule="nonzero"/><path fill="#0d7874" d="M 31.589844 127.15625 C 27.476562 127.15625 24.335938 125.273438 24.164062 125.15625 C 23.878906 124.988281 23.765625 124.644531 23.9375 124.300781 C 25.59375 121.101562 27.648438 118.757812 30.105469 117.386719 C 35.984375 114.128906 42.265625 117.328125 43.464844 117.957031 L 43.695312 118.070312 L 43.867188 118.242188 C 44.035156 118.472656 44.035156 118.757812 43.921875 118.984375 C 41.46875 123.214844 38.328125 125.84375 34.613281 126.757812 C 33.585938 127.042969 32.558594 127.15625 31.589844 127.15625 Z M 25.421875 124.359375 C 26.734375 125.042969 30.390625 126.53125 34.386719 125.558594 C 37.300781 124.816406 39.867188 122.871094 41.980469 119.785156 L 34.101562 122.128906 C 33.757812 122.242188 33.414062 122.015625 33.300781 121.730469 L 33.300781 121.558594 C 33.300781 121.273438 33.472656 121.042969 33.757812 120.929688 L 41.753906 118.527344 C 39.582031 117.558594 35.070312 116.183594 30.847656 118.527344 C 28.675781 119.671875 26.90625 121.613281 25.421875 124.359375 Z M 30.503906 117.957031 Z M 30.503906 117.957031 " fill-opacity="1" fill-rule="nonzero"/><path fill="#0d7874" d="M 33.871094 122.1875 C 33.585938 122.1875 33.359375 122.015625 33.246094 121.730469 C 33.128906 121.386719 33.359375 121.042969 33.644531 120.929688 L 43.179688 118.070312 C 43.523438 117.957031 43.867188 118.1875 43.980469 118.472656 C 44.09375 118.8125 43.867188 119.15625 43.582031 119.273438 L 34.042969 122.128906 C 33.988281 122.128906 33.929688 122.1875 33.871094 122.1875 Z M 33.871094 122.1875 " fill-opacity="1" fill-rule="nonzero"/><path fill="#0d7874" d="M 107.648438 164.019531 C 107.648438 164.195312 107.617188 164.359375 107.550781 164.523438 C 107.484375 164.683594 107.386719 164.824219 107.265625 164.949219 C 107.140625 165.070312 107 165.167969 106.839844 165.234375 C 106.679688 165.300781 106.511719 165.332031 106.335938 165.332031 C 106.160156 165.332031 105.996094 165.300781 105.832031 165.234375 C 105.671875 165.167969 105.53125 165.070312 105.40625 164.949219 C 105.285156 164.824219 105.1875 164.683594 105.121094 164.523438 C 105.054688 164.359375 105.023438 164.195312 105.023438 164.019531 C 105.023438 163.84375 105.054688 163.675781 105.121094 163.515625 C 105.1875 163.355469 105.285156 163.214844 105.40625 163.089844 C 105.53125 162.964844 105.671875 162.871094 105.832031 162.804688 C 105.996094 162.738281 106.160156 162.703125 106.335938 162.703125 C 106.511719 162.703125 106.679688 162.738281 106.839844 162.804688 C 107 162.871094 107.140625 162.964844 107.265625 163.089844 C 107.386719 163.214844 107.484375 163.355469 107.550781 163.515625 C 107.617188 163.675781 107.648438 163.84375 107.648438 164.019531 Z M 107.648438 164.019531 " fill-opacity="1" fill-rule="nonzero"/><path fill="#0d7874" d="M 107.648438 168.707031 C 107.648438 168.878906 107.617188 169.046875 107.550781 169.207031 C 107.484375 169.371094 107.386719 169.511719 107.265625 169.636719 C 107.140625 169.757812 107 169.851562 106.839844 169.917969 C 106.679688 169.988281 106.511719 170.019531 106.335938 170.019531 C 106.160156 170.019531 105.996094 169.988281 105.832031 169.917969 C 105.671875 169.851562 105.53125 169.757812 105.40625 169.636719 C 105.285156 169.511719 105.1875 169.371094 105.121094 169.207031 C 105.054688 169.046875 105.023438 168.878906 105.023438 168.707031 C 105.023438 168.53125 105.054688 168.363281 105.121094 168.203125 C 105.1875 168.042969 105.285156 167.898438 105.40625 167.777344 C 105.53125 167.652344 105.671875 167.558594 105.832031 167.492188 C 105.996094 167.425781 106.160156 167.390625 106.335938 167.390625 C 106.511719 167.390625 106.679688 167.425781 106.839844 167.492188 C 107 167.558594 107.140625 167.652344 107.265625 167.777344 C 107.386719 167.898438 107.484375 168.042969 107.550781 168.203125 C 107.617188 168.363281 107.648438 168.53125 107.648438 168.707031 Z M 107.648438 168.707031 " fill-opacity="1" fill-rule="nonzero"/><path fill="#0d7874" d="M 107.648438 173.390625 C 107.648438 173.566406 107.617188 173.734375 107.550781 173.894531 C 107.484375 174.054688 107.386719 174.199219 107.265625 174.320312 C 107.140625 174.445312 107 174.539062 106.839844 174.605469 C 106.679688 174.671875 106.511719 174.707031 106.335938 174.707031 C 106.160156 174.707031 105.996094 174.671875 105.832031 174.605469 C 105.671875 174.539062 105.53125 174.445312 105.40625 174.320312 C 105.285156 174.199219 105.1875 174.054688 105.121094 173.894531 C 105.054688 173.734375 105.023438 173.566406 105.023438 173.390625 C 105.023438 173.21875 105.054688 173.050781 105.121094 172.890625 C 105.1875 172.726562 105.285156 172.585938 105.40625 172.460938 C 105.53125 172.339844 105.671875 172.242188 105.832031 172.175781 C 105.996094 172.109375 106.160156 172.078125 106.335938 172.078125 C 106.511719 172.078125 106.679688 172.109375 106.839844 172.175781 C 107 172.242188 107.140625 172.339844 107.265625 172.460938 C 107.386719 172.585938 107.484375 172.726562 107.550781 172.890625 C 107.617188 173.050781 107.648438 173.21875 107.648438 173.390625 Z M 107.648438 173.390625 " fill-opacity="1" fill-rule="nonzero"/><path fill="#0d7874" d="M 107.648438 178.136719 C 107.648438 178.308594 107.617188 178.476562 107.550781 178.636719 C 107.484375 178.800781 107.386719 178.941406 107.265625 179.066406 C 107.140625 179.1875 107 179.28125 106.839844 179.347656 C 106.679688 179.417969 106.511719 179.449219 106.335938 179.449219 C 106.160156 179.449219 105.996094 179.417969 105.832031 179.347656 C 105.671875 179.28125 105.53125 179.1875 105.40625 179.066406 C 105.285156 178.941406 105.1875 178.800781 105.121094 178.636719 C 105.054688 178.476562 105.023438 178.308594 105.023438 178.136719 C 105.023438 177.960938 105.054688 177.792969 105.121094 177.632812 C 105.1875 177.472656 105.285156 177.328125 105.40625 177.207031 C 105.53125 177.082031 105.671875 176.988281 105.832031 176.921875 C 105.996094 176.855469 106.160156 176.820312 106.335938 176.820312 C 106.511719 176.820312 106.679688 176.855469 106.839844 176.921875 C 107 176.988281 107.140625 177.082031 107.265625 177.207031 C 107.386719 177.328125 107.484375 177.472656 107.550781 177.632812 C 107.617188 177.792969 107.648438 177.960938 107.648438 178.136719 Z M 107.648438 178.136719 " fill-opacity="1" fill-rule="nonzero"/><path fill="#0d7874" d="M 75.730469 32.691406 C 75.730469 32.84375 75.699219 32.988281 75.640625 33.128906 C 75.585938 33.269531 75.5 33.390625 75.394531 33.5 C 75.289062 33.605469 75.164062 33.6875 75.023438 33.746094 C 74.882812 33.804688 74.738281 33.832031 74.585938 33.832031 C 74.4375 33.832031 74.289062 33.804688 74.148438 33.746094 C 74.011719 33.6875 73.886719 33.605469 73.78125 33.5 C 73.671875 33.390625 73.589844 33.269531 73.53125 33.128906 C 73.472656 32.988281 73.445312 32.84375 73.445312 32.691406 C 73.445312 32.539062 73.472656 32.394531 73.53125 32.253906 C 73.589844 32.113281 73.671875 31.988281 73.78125 31.882812 C 73.886719 31.773438 74.011719 31.691406 74.148438 31.632812 C 74.289062 31.578125 74.4375 31.546875 74.585938 31.546875 C 74.738281 31.546875 74.882812 31.578125 75.023438 31.632812 C 75.164062 31.691406 75.289062 31.773438 75.394531 31.882812 C 75.5 31.988281 75.585938 32.113281 75.640625 32.253906 C 75.699219 32.394531 75.730469 32.539062 75.730469 32.691406 Z M 75.730469 32.691406 " fill-opacity="1" fill-rule="nonzero"/><path fill="#0d7874" d="M 82.523438 32.691406 C 82.523438 32.84375 82.496094 32.988281 82.4375 33.128906 C 82.378906 33.269531 82.296875 33.390625 82.191406 33.5 C 82.082031 33.605469 81.960938 33.6875 81.820312 33.746094 C 81.679688 33.804688 81.535156 33.832031 81.382812 33.832031 C 81.230469 33.832031 81.085938 33.804688 80.945312 33.746094 C 80.804688 33.6875 80.683594 33.605469 80.574219 33.5 C 80.46875 33.390625 80.386719 33.269531 80.328125 33.128906 C 80.269531 32.988281 80.238281 32.84375 80.238281 32.691406 C 80.238281 32.539062 80.269531 32.394531 80.328125 32.253906 C 80.386719 32.113281 80.46875 31.988281 80.574219 31.882812 C 80.683594 31.773438 80.804688 31.691406 80.945312 31.632812 C 81.085938 31.578125 81.230469 31.546875 81.382812 31.546875 C 81.535156 31.546875 81.679688 31.578125 81.820312 31.632812 C 81.960938 31.691406 82.082031 31.773438 82.191406 31.882812 C 82.296875 31.988281 82.378906 32.113281 82.4375 32.253906 C 82.496094 32.394531 82.523438 32.539062 82.523438 32.691406 Z M 82.523438 32.691406 " fill-opacity="1" fill-rule="nonzero"/><path fill="#0d7874" d="M 88.917969 34.234375 C 88.917969 34.386719 88.890625 34.53125 88.832031 34.671875 C 88.773438 34.8125 88.691406 34.933594 88.585938 35.042969 C 88.476562 35.148438 88.355469 35.230469 88.214844 35.289062 C 88.074219 35.347656 87.929688 35.375 87.777344 35.375 C 87.625 35.375 87.480469 35.347656 87.339844 35.289062 C 87.199219 35.230469 87.078125 35.148438 86.96875 35.042969 C 86.863281 34.933594 86.78125 34.8125 86.722656 34.671875 C 86.664062 34.53125 86.636719 34.386719 86.636719 34.234375 C 86.636719 34.082031 86.664062 33.9375 86.722656 33.796875 C 86.78125 33.65625 86.863281 33.53125 86.96875 33.425781 C 87.078125 33.316406 87.199219 33.234375 87.339844 33.175781 C 87.480469 33.121094 87.625 33.089844 87.777344 33.089844 C 87.929688 33.089844 88.074219 33.121094 88.214844 33.175781 C 88.355469 33.234375 88.476562 33.316406 88.585938 33.425781 C 88.691406 33.53125 88.773438 33.65625 88.832031 33.796875 C 88.890625 33.9375 88.917969 34.082031 88.917969 34.234375 Z M 88.917969 34.234375 " fill-opacity="1" fill-rule="nonzero"/><path fill="#0d7874" d="M 139.285156 32.691406 C 139.285156 32.84375 139.253906 32.988281 139.199219 33.128906 C 139.140625 33.269531 139.058594 33.390625 138.949219 33.5 C 138.84375 33.605469 138.71875 33.6875 138.578125 33.746094 C 138.441406 33.804688 138.292969 33.832031 138.140625 33.832031 C 137.992188 33.832031 137.84375 33.804688 137.707031 33.746094 C 137.566406 33.6875 137.441406 33.605469 137.335938 33.5 C 137.226562 33.390625 137.144531 33.269531 137.085938 33.128906 C 137.03125 32.988281 137 32.84375 137 32.691406 C 137 32.539062 137.03125 32.394531 137.085938 32.253906 C 137.144531 32.113281 137.226562 31.988281 137.335938 31.882812 C 137.441406 31.773438 137.566406 31.691406 137.707031 31.632812 C 137.84375 31.578125 137.992188 31.546875 138.140625 31.546875 C 138.292969 31.546875 138.441406 31.578125 138.578125 31.632812 C 138.71875 31.691406 138.84375 31.773438 138.949219 31.882812 C 139.058594 31.988281 139.140625 32.113281 139.199219 32.253906 C 139.253906 32.394531 139.285156 32.539062 139.285156 32.691406 Z M 139.285156 32.691406 " fill-opacity="1" fill-rule="nonzero"/><path fill="#0d7874" d="M 132.488281 32.691406 C 132.488281 32.84375 132.460938 32.988281 132.402344 33.128906 C 132.34375 33.269531 132.261719 33.390625 132.15625 33.5 C 132.046875 33.605469 131.925781 33.6875 131.785156 33.746094 C 131.644531 33.804688 131.5 33.832031 131.347656 33.832031 C 131.195312 33.832031 131.050781 33.804688 130.910156 33.746094 C 130.769531 33.6875 130.648438 33.605469 130.539062 33.5 C 130.433594 33.390625 130.351562 33.269531 130.292969 33.128906 C 130.234375 32.988281 130.207031 32.84375 130.207031 32.691406 C 130.207031 32.539062 130.234375 32.394531 130.292969 32.253906 C 130.351562 32.113281 130.433594 31.988281 130.539062 31.882812 C 130.648438 31.773438 130.769531 31.691406 130.910156 31.632812 C 131.050781 31.578125 131.195312 31.546875 131.347656 31.546875 C 131.5 31.546875 131.644531 31.578125 131.785156 31.632812 C 131.925781 31.691406 132.046875 31.773438 132.15625 31.882812 C 132.261719 31.988281 132.34375 32.113281 132.402344 32.253906 C 132.460938 32.394531 132.488281 32.539062 132.488281 32.691406 Z M 132.488281 32.691406 " fill-opacity="1" fill-rule="nonzero"/><path fill="#0d7874" d="M 126.035156 34.234375 C 126.035156 34.386719 126.007812 34.53125 125.949219 34.671875 C 125.890625 34.8125 125.808594 34.933594 125.703125 35.042969 C 125.59375 35.148438 125.472656 35.230469 125.332031 35.289062 C 125.191406 35.347656 125.046875 35.375 124.894531 35.375 C 124.742188 35.375 124.597656 35.347656 124.457031 35.289062 C 124.316406 35.230469 124.195312 35.148438 124.085938 35.042969 C 123.980469 34.933594 123.898438 34.8125 123.839844 34.671875 C 123.78125 34.53125 123.753906 34.386719 123.753906 34.234375 C 123.753906 34.082031 123.78125 33.9375 123.839844 33.796875 C 123.898438 33.65625 123.980469 33.53125 124.085938 33.425781 C 124.195312 33.316406 124.316406 33.234375 124.457031 33.175781 C 124.597656 33.121094 124.742188 33.089844 124.894531 33.089844 C 125.046875 33.089844 125.191406 33.121094 125.332031 33.175781 C 125.472656 33.234375 125.59375 33.316406 125.703125 33.425781 C 125.808594 33.53125 125.890625 33.65625 125.949219 33.796875 C 126.007812 33.9375 126.035156 34.082031 126.035156 34.234375 Z M 126.035156 34.234375 " fill-opacity="1" fill-rule="nonzero"/><path fill="#0d7874" d="M 106.335938 57.378906 C 106.050781 57.378906 105.824219 57.207031 105.707031 56.921875 C 101.710938 44.292969 92.746094 38.0625 92.6875 38.003906 C 92.402344 37.835938 92.347656 37.433594 92.515625 37.089844 C 92.6875 36.804688 93.089844 36.75 93.429688 36.917969 C 93.832031 37.207031 102.796875 43.433594 106.964844 56.523438 C 107.078125 56.863281 106.90625 57.207031 106.566406 57.320312 C 106.507812 57.378906 106.394531 57.378906 106.335938 57.378906 Z M 106.335938 57.378906 " fill-opacity="1" fill-rule="nonzero"/><path fill="#0d7874" d="M 106.335938 57.378906 C 106.277344 57.378906 106.222656 57.378906 106.164062 57.320312 C 105.824219 57.207031 105.652344 56.863281 105.765625 56.523438 C 109.933594 43.492188 118.898438 37.207031 119.296875 36.917969 C 119.585938 36.75 119.984375 36.804688 120.210938 37.089844 C 120.382812 37.375 120.328125 37.777344 120.039062 38.003906 C 119.925781 38.0625 111.019531 44.292969 107.019531 56.921875 C 106.851562 57.207031 106.621094 57.378906 106.335938 57.378906 Z M 106.335938 57.378906 " fill-opacity="1" fill-rule="nonzero"/><g clip-path="url(#c104b4305b)"><path fill="#0d7874" d="M 206.378906 107.898438 C 206.378906 130.988281 198.558594 152.246094 185.367188 169.21875 C 184.910156 169.792969 185.308594 170.648438 186.050781 170.648438 C 186.335938 170.648438 186.566406 170.535156 186.738281 170.304688 C 200.554688 152.53125 208.035156 130.816406 208.035156 107.957031 C 208.035156 96.925781 206.265625 86.125 202.898438 75.953125 C 202.78125 75.609375 202.441406 75.382812 202.039062 75.382812 C 201.46875 75.382812 201.011719 75.953125 201.242188 76.523438 C 204.609375 86.355469 206.378906 96.925781 206.378906 107.898438 Z M 206.378906 107.898438 " fill-opacity="1" fill-rule="nonzero"/></g><g clip-path="url(#529e56ed18)"><path fill="#0d7874" d="M 50.832031 23.089844 C 50.832031 23.773438 51.574219 24.175781 52.144531 23.832031 C 67.792969 13.71875 86.351562 7.832031 106.277344 7.832031 C 126.207031 7.832031 144.824219 13.71875 160.414062 23.832031 C 160.984375 24.234375 161.726562 23.773438 161.726562 23.089844 C 161.726562 22.804688 161.554688 22.519531 161.328125 22.347656 C 145.167969 11.773438 126.207031 6.117188 106.335938 6.117188 C 86.464844 6.117188 67.507812 11.773438 51.230469 22.289062 C 51.003906 22.460938 50.832031 22.746094 50.832031 23.089844 Z M 50.832031 23.089844 " fill-opacity="1" fill-rule="nonzero"/></g><g clip-path="url(#245bbb3546)"><path fill="#0d7874" d="M 6.347656 107.898438 C 6.347656 96.925781 8.121094 86.355469 11.429688 76.46875 C 11.601562 75.894531 11.203125 75.324219 10.632812 75.324219 C 10.230469 75.324219 9.945312 75.550781 9.773438 75.894531 C 6.40625 86.066406 4.636719 96.867188 4.636719 107.898438 C 4.636719 130.757812 12.117188 152.476562 25.933594 170.25 C 26.105469 170.476562 26.335938 170.589844 26.621094 170.589844 C 27.363281 170.589844 27.761719 169.734375 27.304688 169.164062 C 14.171875 152.246094 6.347656 130.988281 6.347656 107.898438 Z M 6.347656 107.898438 " fill-opacity="1" fill-rule="nonzero"/></g><g transform="matrix(1, 0, 0, 1, 204, 72)"><g clip-path="url(#6c3055c397)"><g fill="#0d7874" fill-opacity="1"><g transform="translate(0.372766, 101.072776)"><g><path d="M 29.453125 1.109375 C 25.929688 1.109375 22.78125 0.804688 20 0.203125 C 17.226562 -0.398438 14.179688 -1.210938 10.859375 -2.234375 C 8.828125 -2.972656 7.304688 -3.378906 6.296875 -3.453125 L 7.109375 -21.828125 L 13.609375 -21.828125 L 15.328125 -8.625 C 16.484375 -7.539062 18.363281 -6.578125 20.96875 -5.734375 C 23.570312 -4.890625 26.429688 -4.46875 29.546875 -4.46875 C 34.691406 -4.46875 38.601562 -5.617188 41.28125 -7.921875 C 43.957031 -10.222656 45.296875 -13.40625 45.296875 -17.46875 C 45.296875 -20.101562 44.566406 -22.367188 43.109375 -24.265625 C 41.648438 -26.160156 39.71875 -27.785156 37.3125 -29.140625 C 34.914062 -30.492188 31.617188 -32.085938 27.421875 -33.921875 C 23.628906 -35.609375 20.328125 -37.332031 17.515625 -39.09375 C 14.703125 -40.851562 12.265625 -43.203125 10.203125 -46.140625 C 8.140625 -49.085938 7.109375 -52.628906 7.109375 -56.765625 C 7.109375 -60.484375 8.101562 -63.816406 10.09375 -66.765625 C 12.09375 -69.710938 14.972656 -72.03125 18.734375 -73.71875 C 22.492188 -75.414062 26.878906 -76.265625 31.890625 -76.265625 C 35.003906 -76.265625 37.757812 -76.023438 40.15625 -75.546875 C 42.5625 -75.078125 45.289062 -74.4375 48.34375 -73.625 C 49.695312 -73.144531 50.84375 -72.835938 51.78125 -72.703125 L 51.171875 -55.640625 L 44.984375 -55.640625 L 42.953125 -68.140625 C 42.273438 -68.816406 40.867188 -69.457031 38.734375 -70.0625 C 36.609375 -70.675781 34.289062 -70.984375 31.78125 -70.984375 C 27.113281 -70.984375 23.578125 -70 21.171875 -68.03125 C 18.765625 -66.070312 17.5625 -63.226562 17.5625 -59.5 C 17.5625 -56.789062 18.289062 -54.523438 19.75 -52.703125 C 21.207031 -50.878906 23.019531 -49.320312 25.1875 -48.03125 C 27.351562 -46.75 30.804688 -44.988281 35.546875 -42.75 C 39.941406 -40.65625 43.523438 -38.757812 46.296875 -37.0625 C 49.078125 -35.375 51.460938 -33.15625 53.453125 -30.40625 C 55.453125 -27.664062 56.453125 -24.398438 56.453125 -20.609375 C 56.453125 -17.023438 55.453125 -13.570312 53.453125 -10.25 C 51.460938 -6.9375 48.421875 -4.210938 44.328125 -2.078125 C 40.234375 0.046875 35.273438 1.109375 29.453125 1.109375 Z M 29.453125 1.109375 "/></g></g></g><g fill="#0d7874" fill-opacity="1"><g transform="translate(54.088288, 101.072776)"><g><path d="M 29.546875 1.109375 C 21.359375 1.109375 15.113281 -1.5625 10.8125 -6.90625 C 6.507812 -12.25 4.359375 -19.390625 4.359375 -28.328125 C 4.359375 -34.222656 5.472656 -39.398438 7.703125 -43.859375 C 9.941406 -48.328125 13.078125 -51.78125 17.109375 -54.21875 C 21.140625 -56.65625 25.726562 -57.875 30.875 -57.875 C 37.164062 -57.875 42.050781 -56.128906 45.53125 -52.640625 C 49.019531 -49.160156 50.867188 -44.171875 51.078125 -37.671875 C 51.078125 -33.546875 50.84375 -30.398438 50.375 -28.234375 L 15.4375 -28.234375 C 15.570312 -21.523438 17.128906 -16.125 20.109375 -12.03125 C 23.085938 -7.9375 27.316406 -5.890625 32.796875 -5.890625 C 35.503906 -5.890625 38.332031 -6.378906 41.28125 -7.359375 C 44.226562 -8.335938 46.515625 -9.503906 48.140625 -10.859375 L 50.0625 -6.390625 C 48.101562 -4.359375 45.191406 -2.597656 41.328125 -1.109375 C 37.472656 0.367188 33.546875 1.109375 29.546875 1.109375 Z M 39.90625 -33.609375 C 40.113281 -35.035156 40.21875 -36.492188 40.21875 -37.984375 C 40.144531 -42.378906 39.210938 -45.84375 37.421875 -48.375 C 35.628906 -50.914062 32.800781 -52.1875 28.9375 -52.1875 C 25.007812 -52.1875 21.878906 -50.765625 19.546875 -47.921875 C 17.210938 -45.085938 15.875 -40.316406 15.53125 -33.609375 Z M 39.90625 -33.609375 "/></g></g></g><g fill="#0d7874" fill-opacity="1"><g transform="translate(102.726607, 101.072776)"><g><path d="M 4.46875 -4.96875 L 10.65625 -5.890625 L 10.65625 -48.546875 L 3.34375 -50.375 L 3.34375 -55.84375 L 17.875 -57.671875 L 19.703125 -56.359375 L 20.3125 -52.296875 L 20.203125 -49.046875 C 22.578125 -51.210938 25.8125 -53.191406 29.90625 -54.984375 C 34 -56.773438 37.671875 -57.671875 40.921875 -57.671875 C 44.578125 -57.671875 47.519531 -57.0625 49.75 -55.84375 C 51.988281 -54.625 53.679688 -52.734375 54.828125 -50.171875 C 56.992188 -51.992188 60.023438 -53.695312 63.921875 -55.28125 C 67.816406 -56.875 71.457031 -57.671875 74.84375 -57.671875 C 79.039062 -57.671875 82.320312 -56.875 84.6875 -55.28125 C 87.0625 -53.695312 88.738281 -51.226562 89.71875 -47.875 C 90.695312 -44.53125 91.1875 -40.046875 91.1875 -34.421875 L 91.1875 -5.890625 L 98.5 -4.96875 L 98.5 0 L 74.328125 0 L 74.328125 -4.96875 L 80.625 -5.890625 L 80.625 -34.125 C 80.625 -38.050781 80.335938 -41.179688 79.765625 -43.515625 C 79.191406 -45.847656 78.109375 -47.585938 76.515625 -48.734375 C 74.921875 -49.890625 72.632812 -50.46875 69.65625 -50.46875 C 67.425781 -50.46875 65.054688 -49.976562 62.546875 -49 C 60.046875 -48.019531 57.914062 -46.851562 56.15625 -45.5 C 56.757812 -42.851562 57.0625 -39.09375 57.0625 -34.21875 L 57.0625 -5.890625 L 64.28125 -4.96875 L 64.28125 0 L 39.703125 0 L 39.703125 -4.96875 L 46.40625 -5.890625 L 46.40625 -34.328125 C 46.40625 -38.390625 46.148438 -41.535156 45.640625 -43.765625 C 45.140625 -46.003906 44.175781 -47.679688 42.75 -48.796875 C 41.332031 -49.910156 39.164062 -50.46875 36.25 -50.46875 C 33.8125 -50.46875 31.222656 -49.859375 28.484375 -48.640625 C 25.742188 -47.421875 23.359375 -46 21.328125 -44.375 L 21.328125 -5.890625 L 28.125 -4.96875 L 28.125 0 L 4.46875 0 Z M 4.46875 -4.96875 "/></g></g></g><g fill="#0d7874" fill-opacity="1"><g transform="translate(197.161234, 101.072776)"><g><path d="M 4.5625 -15.234375 C 4.5625 -21.597656 7.742188 -26.285156 14.109375 -29.296875 C 20.472656 -32.304688 28.53125 -33.914062 38.28125 -34.125 L 38.28125 -36.96875 C 38.28125 -40.144531 37.941406 -42.644531 37.265625 -44.46875 C 36.585938 -46.300781 35.421875 -47.640625 33.765625 -48.484375 C 32.109375 -49.335938 29.753906 -49.765625 26.703125 -49.765625 C 23.253906 -49.765625 20.15625 -49.269531 17.40625 -48.28125 C 14.664062 -47.300781 11.941406 -46.101562 9.234375 -44.6875 L 6.703125 -49.96875 C 7.578125 -50.707031 9.195312 -51.6875 11.5625 -52.90625 C 13.9375 -54.125 16.679688 -55.207031 19.796875 -56.15625 C 22.910156 -57.101562 26.023438 -57.578125 29.140625 -57.578125 C 33.953125 -57.578125 37.757812 -56.914062 40.5625 -55.59375 C 43.375 -54.269531 45.390625 -52.15625 46.609375 -49.25 C 47.828125 -46.34375 48.4375 -42.453125 48.4375 -37.578125 L 48.4375 -4.96875 L 54.421875 -4.96875 L 54.421875 -0.5 C 53.066406 -0.164062 51.359375 0.164062 49.296875 0.5 C 47.234375 0.84375 45.425781 1.015625 43.875 1.015625 C 41.976562 1.015625 40.691406 0.726562 40.015625 0.15625 C 39.335938 -0.414062 39 -1.6875 39 -3.65625 L 39 -7 C 36.96875 -4.96875 34.476562 -3.109375 31.53125 -1.421875 C 28.582031 0.265625 25.25 1.109375 21.53125 1.109375 C 16.65625 1.109375 12.609375 -0.289062 9.390625 -3.09375 C 6.171875 -5.90625 4.5625 -9.953125 4.5625 -15.234375 Z M 25.890625 -5.78125 C 27.648438 -5.78125 29.679688 -6.320312 31.984375 -7.40625 C 34.285156 -8.488281 36.382812 -9.773438 38.28125 -11.265625 L 38.28125 -28.734375 C 30.90625 -28.734375 25.335938 -27.597656 21.578125 -25.328125 C 17.816406 -23.066406 15.9375 -20.109375 15.9375 -16.453125 C 15.9375 -12.796875 16.832031 -10.101562 18.625 -8.375 C 20.425781 -6.644531 22.847656 -5.78125 25.890625 -5.78125 Z M 25.890625 -5.78125 "/></g></g></g><g fill="#0d7874" fill-opacity="1"><g transform="translate(247.525793, 101.072776)"><g><path d="M 10.65625 -48.546875 L 3.34375 -50.375 L 3.34375 -55.84375 L 17.875 -57.671875 L 18.171875 -57.671875 L 20.3125 -55.84375 L 20.3125 -51.578125 L 20.203125 -49.15625 C 22.640625 -51.3125 25.851562 -53.269531 29.84375 -55.03125 C 33.84375 -56.789062 37.671875 -57.671875 41.328125 -57.671875 C 45.597656 -57.671875 48.898438 -56.859375 51.234375 -55.234375 C 53.566406 -53.609375 55.207031 -51.117188 56.15625 -47.765625 C 57.101562 -44.421875 57.578125 -39.90625 57.578125 -34.21875 L 57.578125 -5.78125 L 64.6875 -5.078125 L 64.6875 0 L 40.625 0 L 40.625 -4.96875 L 46.921875 -5.78125 L 46.921875 -34.328125 C 46.921875 -38.316406 46.648438 -41.445312 46.109375 -43.71875 C 45.566406 -45.988281 44.550781 -47.679688 43.0625 -48.796875 C 41.570312 -49.910156 39.40625 -50.46875 36.5625 -50.46875 C 34.125 -50.46875 31.515625 -49.859375 28.734375 -48.640625 C 25.960938 -47.421875 23.492188 -46 21.328125 -44.375 L 21.328125 -5.890625 L 28.234375 -4.96875 L 28.234375 0 L 4.265625 0 L 4.265625 -4.96875 L 10.65625 -5.890625 Z M 10.65625 -48.546875 "/></g></g></g><g fill="#0d7874" fill-opacity="1"><g transform="translate(308.349383, 101.072776)"><g><path d="M 4.5625 -15.234375 C 4.5625 -21.597656 7.742188 -26.285156 14.109375 -29.296875 C 20.472656 -32.304688 28.53125 -33.914062 38.28125 -34.125 L 38.28125 -36.96875 C 38.28125 -40.144531 37.941406 -42.644531 37.265625 -44.46875 C 36.585938 -46.300781 35.421875 -47.640625 33.765625 -48.484375 C 32.109375 -49.335938 29.753906 -49.765625 26.703125 -49.765625 C 23.253906 -49.765625 20.15625 -49.269531 17.40625 -48.28125 C 14.664062 -47.300781 11.941406 -46.101562 9.234375 -44.6875 L 6.703125 -49.96875 C 7.578125 -50.707031 9.195312 -51.6875 11.5625 -52.90625 C 13.9375 -54.125 16.679688 -55.207031 19.796875 -56.15625 C 22.910156 -57.101562 26.023438 -57.578125 29.140625 -57.578125 C 33.953125 -57.578125 37.757812 -56.914062 40.5625 -55.59375 C 43.375 -54.269531 45.390625 -52.15625 46.609375 -49.25 C 47.828125 -46.34375 48.4375 -42.453125 48.4375 -37.578125 L 48.4375 -4.96875 L 54.421875 -4.96875 L 54.421875 -0.5 C 53.066406 -0.164062 51.359375 0.164062 49.296875 0.5 C 47.234375 0.84375 45.425781 1.015625 43.875 1.015625 C 41.976562 1.015625 40.691406 0.726562 40.015625 0.15625 C 39.335938 -0.414062 39 -1.6875 39 -3.65625 L 39 -7 C 36.96875 -4.96875 34.476562 -3.109375 31.53125 -1.421875 C 28.582031 0.265625 25.25 1.109375 21.53125 1.109375 C 16.65625 1.109375 12.609375 -0.289062 9.390625 -3.09375 C 6.171875 -5.90625 4.5625 -9.953125 4.5625 -15.234375 Z M 25.890625 -5.78125 C 27.648438 -5.78125 29.679688 -6.320312 31.984375 -7.40625 C 34.285156 -8.488281 36.382812 -9.773438 38.28125 -11.265625 L 38.28125 -28.734375 C 30.90625 -28.734375 25.335938 -27.597656 21.578125 -25.328125 C 17.816406 -23.066406 15.9375 -20.109375 15.9375 -16.453125 C 15.9375 -12.796875 16.832031 -10.101562 18.625 -8.375 C 20.425781 -6.644531 22.847656 -5.78125 25.890625 -5.78125 Z M 25.890625 -5.78125 "/></g></g></g></g></g><g transform="matrix(1, 0, 0, 1, 569, 108)"><g clip-path="url(#503c32658d)"><g fill="#b5e0df" fill-opacity="1"><g transform="translate(0.826254, 65.319183)"><g><path d="M 8.4375 -44.5625 L 3.34375 -45.34375 L 3.34375 -48.625 L 11.90625 -48.625 C 13.257812 -48.625 15.203125 -48.707031 17.734375 -48.875 C 20.265625 -49.050781 22.160156 -49.140625 23.421875 -49.140625 C 31.535156 -49.140625 37.566406 -47.097656 41.515625 -43.015625 C 45.460938 -38.941406 47.4375 -33.21875 47.4375 -25.84375 C 47.4375 -20.695312 46.421875 -16.128906 44.390625 -12.140625 C 42.367188 -8.148438 39.523438 -5.039062 35.859375 -2.8125 C 32.191406 -0.582031 27.984375 0.53125 23.234375 0.53125 C 22.179688 0.53125 20.390625 0.441406 17.859375 0.265625 C 15.242188 0.0859375 13.28125 0 11.96875 0 L 3.015625 0 L 3.015625 -3.203125 L 8.4375 -3.859375 Z M 15.375 -3.671875 C 16.90625 -3.316406 18.867188 -3.140625 21.265625 -3.140625 L 23.234375 -3.140625 C 26.503906 -3.179688 29.390625 -4.007812 31.890625 -5.625 C 34.398438 -7.238281 36.351562 -9.648438 37.75 -12.859375 C 39.144531 -16.066406 39.84375 -19.960938 39.84375 -24.546875 C 39.84375 -31.429688 38.347656 -36.660156 35.359375 -40.234375 C 32.378906 -43.816406 27.878906 -45.609375 21.859375 -45.609375 C 20.585938 -45.609375 19.082031 -45.519531 17.34375 -45.34375 C 16.601562 -45.21875 15.945312 -45.15625 15.375 -45.15625 Z M 15.375 -3.671875 "/></g></g></g><g fill="#b5e0df" fill-opacity="1"><g transform="translate(46.168867, 65.319183)"><g><path d="M 19.046875 0.71875 C 13.765625 0.71875 9.738281 -1.003906 6.96875 -4.453125 C 4.195312 -7.898438 2.8125 -12.5 2.8125 -18.25 C 2.8125 -22.050781 3.53125 -25.390625 4.96875 -28.265625 C 6.40625 -31.148438 8.421875 -33.375 11.015625 -34.9375 C 13.617188 -36.507812 16.578125 -37.296875 19.890625 -37.296875 C 23.953125 -37.296875 27.101562 -36.171875 29.34375 -33.921875 C 31.59375 -31.679688 32.785156 -28.46875 32.921875 -24.28125 C 32.921875 -21.613281 32.765625 -19.582031 32.453125 -18.1875 L 9.953125 -18.1875 C 10.035156 -13.875 11.035156 -10.394531 12.953125 -7.75 C 14.867188 -5.113281 17.597656 -3.796875 21.140625 -3.796875 C 22.878906 -3.796875 24.695312 -4.109375 26.59375 -4.734375 C 28.5 -5.367188 29.972656 -6.125 31.015625 -7 L 32.265625 -4.125 C 30.992188 -2.8125 29.113281 -1.675781 26.625 -0.71875 C 24.144531 0.238281 21.617188 0.71875 19.046875 0.71875 Z M 25.71875 -21.65625 C 25.84375 -22.570312 25.90625 -23.507812 25.90625 -24.46875 C 25.863281 -27.3125 25.265625 -29.550781 24.109375 -31.1875 C 22.953125 -32.820312 21.132812 -33.640625 18.65625 -33.640625 C 16.125 -33.640625 14.101562 -32.722656 12.59375 -30.890625 C 11.09375 -29.054688 10.234375 -25.976562 10.015625 -21.65625 Z M 25.71875 -21.65625 "/></g></g></g><g fill="#b5e0df" fill-opacity="1"><g transform="translate(77.509336, 65.319183)"><g><path d="M 14.140625 0.65625 C 11.648438 0.65625 9.789062 0.0859375 8.5625 -1.046875 C 7.34375 -2.179688 6.734375 -4.125 6.734375 -6.875 L 6.734375 -32 L 2.03125 -32 L 2.03125 -34.9375 C 2.25 -34.988281 2.859375 -35.144531 3.859375 -35.40625 C 4.859375 -35.664062 5.535156 -35.90625 5.890625 -36.125 C 6.585938 -36.507812 7.132812 -37.296875 7.53125 -38.484375 C 7.875 -39.304688 8.285156 -40.632812 8.765625 -42.46875 C 9.242188 -44.300781 9.53125 -45.390625 9.625 -45.734375 L 13.484375 -45.734375 L 13.609375 -36.3125 L 24.546875 -36.3125 L 24.546875 -32 L 13.609375 -32 L 13.609375 -11.90625 C 13.609375 -9.425781 13.679688 -7.679688 13.828125 -6.671875 C 13.984375 -5.671875 14.3125 -5.015625 14.8125 -4.703125 C 15.320312 -4.398438 16.1875 -4.25 17.40625 -4.25 C 18.582031 -4.25 19.878906 -4.398438 21.296875 -4.703125 C 22.710938 -5.015625 23.816406 -5.34375 24.609375 -5.6875 L 25.59375 -2.75 C 24.539062 -1.96875 22.847656 -1.203125 20.515625 -0.453125 C 18.179688 0.285156 16.054688 0.65625 14.140625 0.65625 Z M 14.140625 0.65625 "/></g></g></g><g fill="#b5e0df" fill-opacity="1"><g transform="translate(99.885818, 65.319183)"><g><path d="M 2.9375 -18.25 C 2.9375 -22.175781 3.742188 -25.578125 5.359375 -28.453125 C 6.972656 -31.335938 9.097656 -33.53125 11.734375 -35.03125 C 14.378906 -36.539062 17.207031 -37.296875 20.21875 -37.296875 C 25.71875 -37.296875 29.851562 -35.550781 32.625 -32.0625 C 35.394531 -28.570312 36.78125 -23.992188 36.78125 -18.328125 C 36.78125 -14.359375 35.972656 -10.929688 34.359375 -8.046875 C 32.742188 -5.171875 30.613281 -2.988281 27.96875 -1.5 C 25.332031 -0.0195312 22.507812 0.71875 19.5 0.71875 C 14 0.71875 9.863281 -1.023438 7.09375 -4.515625 C 4.320312 -8.003906 2.9375 -12.582031 2.9375 -18.25 Z M 19.890625 -3.015625 C 22.898438 -3.015625 25.210938 -4.253906 26.828125 -6.734375 C 28.441406 -9.222656 29.25 -12.910156 29.25 -17.796875 C 29.25 -22.640625 28.503906 -26.476562 27.015625 -29.3125 C 25.535156 -32.144531 23.160156 -33.5625 19.890625 -33.5625 C 16.878906 -33.5625 14.554688 -32.316406 12.921875 -29.828125 C 11.285156 -27.347656 10.46875 -23.664062 10.46875 -18.78125 C 10.46875 -13.9375 11.226562 -10.097656 12.75 -7.265625 C 14.28125 -4.429688 16.660156 -3.015625 19.890625 -3.015625 Z M 19.890625 -3.015625 "/></g></g></g><g clip-path="url(#0ced76e231)"><g fill="#b5e0df" fill-opacity="1"><g transform="translate(135.413844, 65.319183)"><g><path d="M 15.96875 -18.125 L 4.90625 -32.453125 L 1.25 -33.25 L 1.25 -36.3125 L 17.859375 -36.3125 L 17.859375 -33.25 L 13.28125 -32.453125 L 19.234375 -24.015625 L 21.078125 -21.203125 L 22.84375 -24.015625 L 29.046875 -32.453125 L 24.28125 -33.25 L 24.28125 -36.3125 L 38.078125 -36.3125 L 38.078125 -33.25 L 34.15625 -32.453125 L 23.296875 -18.90625 L 34.875 -3.734375 L 38.671875 -3.140625 L 38.671875 0 L 21.859375 0 L 21.859375 -3.140625 L 26.171875 -3.796875 L 20.21875 -12.625 L 18.25 -15.578125 L 16.484375 -12.6875 L 10.203125 -3.796875 L 15.640625 -3.140625 L 15.640625 0 L 0.390625 0 L 0.390625 -3.140625 L 4.78125 -3.796875 Z M 15.96875 -18.125 "/></g></g></g></g></g></g></svg>