<svg xmlns="http://www.w3.org/2000/svg" xmlns:xlink="http://www.w3.org/1999/xlink" width="500" zoomAndPan="magnify" viewBox="0 0 375 374.999991" height="500" preserveAspectRatio="xMidYMid meet" version="1.0"><defs><g/><clipPath id="6ed460d859"><path d="M 91 184 L 106 184 L 106 199.292969 L 91 199.292969 Z M 91 184 " clip-rule="nonzero"/></clipPath><clipPath id="56f0bae241"><path d="M 77 184 L 93 184 L 93 199.292969 L 77 199.292969 Z M 77 184 " clip-rule="nonzero"/></clipPath><clipPath id="4f8dca434c"><path d="M 109 176 L 114.023438 176 L 114.023438 198 L 109 198 Z M 109 176 " clip-rule="nonzero"/></clipPath><clipPath id="5db33c65ce"><path d="M 79 161.042969 L 104 161.042969 L 104 165 L 79 165 Z M 79 161.042969 " clip-rule="nonzero"/></clipPath><clipPath id="9af70ffd7d"><path d="M 69.773438 176 L 75 176 L 75 197 L 69.773438 197 Z M 69.773438 176 " clip-rule="nonzero"/></clipPath><clipPath id="d87992e7b5"><path d="M 46 9 L 60.519531 9 L 60.519531 23 L 46 23 Z M 46 9 " clip-rule="nonzero"/></clipPath><clipPath id="cf1568b869"><rect x="0" width="61" y="0" height="30"/></clipPath></defs><path fill="#d7c9e3" d="M 91.890625 185.25 L 87.210938 185.25 C 82.082031 185.25 77.921875 181.066406 77.921875 175.90625 L 77.921875 171.199219 L 82.738281 171.199219 C 87.792969 171.199219 91.890625 175.320312 91.890625 180.402344 Z M 91.890625 185.25 " fill-opacity="1" fill-rule="nonzero"/><path fill="#ad98bd" d="M 91.890625 185.386719 C 91.855469 185.386719 91.816406 185.375 91.792969 185.351562 L 83.707031 177.21875 C 83.660156 177.167969 83.660156 177.082031 83.707031 177.019531 C 83.757812 176.96875 83.84375 176.96875 83.90625 177.019531 L 91.992188 185.152344 C 92.042969 185.199219 92.042969 185.289062 91.992188 185.351562 C 91.964844 185.375 91.929688 185.386719 91.890625 185.386719 Z M 91.890625 185.386719 " fill-opacity="1" fill-rule="nonzero"/><path fill="#ad98bd" d="M 85.882812 179.34375 L 83.808594 179.34375 C 83.734375 179.34375 83.671875 179.28125 83.671875 179.203125 C 83.671875 179.128906 83.734375 179.066406 83.808594 179.066406 L 85.867188 179.066406 C 85.945312 179.066406 86.003906 179.128906 86.003906 179.203125 C 86.003906 179.28125 85.957031 179.34375 85.882812 179.34375 Z M 85.882812 179.34375 " fill-opacity="1" fill-rule="nonzero"/><path fill="#ad98bd" d="M 85.882812 179.34375 C 85.808594 179.34375 85.746094 179.28125 85.746094 179.203125 L 85.746094 177.132812 C 85.746094 177.054688 85.808594 176.992188 85.882812 176.992188 C 85.957031 176.992188 86.019531 177.054688 86.019531 177.132812 L 86.019531 179.203125 C 86.019531 179.28125 85.957031 179.34375 85.882812 179.34375 Z M 85.882812 179.34375 " fill-opacity="1" fill-rule="nonzero"/><path fill="#ad98bd" d="M 87.507812 180.980469 C 87.433594 180.980469 87.371094 180.917969 87.371094 180.839844 L 87.371094 178.769531 C 87.371094 178.691406 87.433594 178.628906 87.507812 178.628906 C 87.582031 178.628906 87.644531 178.691406 87.644531 178.769531 L 87.644531 180.839844 C 87.644531 180.917969 87.582031 180.980469 87.507812 180.980469 Z M 87.507812 180.980469 " fill-opacity="1" fill-rule="nonzero"/><path fill="#ad98bd" d="M 89.148438 182.628906 C 89.074219 182.628906 89.011719 182.566406 89.011719 182.488281 L 89.011719 180.417969 C 89.011719 180.339844 89.074219 180.277344 89.148438 180.277344 C 89.222656 180.277344 89.285156 180.339844 89.285156 180.417969 L 89.285156 182.488281 C 89.285156 182.566406 89.222656 182.628906 89.148438 182.628906 Z M 89.148438 182.628906 " fill-opacity="1" fill-rule="nonzero"/><path fill="#ad98bd" d="M 87.507812 180.980469 L 85.445312 180.980469 C 85.371094 180.980469 85.308594 180.917969 85.308594 180.839844 C 85.308594 180.765625 85.371094 180.703125 85.445312 180.703125 L 87.507812 180.703125 C 87.582031 180.703125 87.644531 180.765625 87.644531 180.839844 C 87.644531 180.917969 87.582031 180.980469 87.507812 180.980469 Z M 87.507812 180.980469 " fill-opacity="1" fill-rule="nonzero"/><path fill="#ad98bd" d="M 89.148438 182.628906 L 87.085938 182.628906 C 87.011719 182.628906 86.949219 182.566406 86.949219 182.488281 C 86.949219 182.414062 87.011719 182.351562 87.085938 182.351562 L 89.148438 182.351562 C 89.222656 182.351562 89.285156 182.414062 89.285156 182.488281 C 89.285156 182.566406 89.222656 182.628906 89.148438 182.628906 Z M 89.148438 182.628906 " fill-opacity="1" fill-rule="nonzero"/><path fill="#d7c9e3" d="M 91.890625 185.25 L 96.574219 185.25 C 101.703125 185.25 105.863281 181.066406 105.863281 175.90625 L 105.863281 171.199219 L 101.046875 171.199219 C 95.992188 171.199219 91.890625 175.320312 91.890625 180.402344 Z M 91.890625 185.25 " fill-opacity="1" fill-rule="nonzero"/><path fill="#ad98bd" d="M 91.890625 185.386719 C 91.855469 185.386719 91.816406 185.375 91.792969 185.351562 C 91.742188 185.300781 91.742188 185.214844 91.792969 185.152344 L 99.878906 177.019531 C 99.925781 176.96875 100.015625 176.96875 100.078125 177.019531 C 100.125 177.070312 100.125 177.15625 100.078125 177.21875 L 91.992188 185.351562 C 91.964844 185.375 91.929688 185.386719 91.890625 185.386719 Z M 91.890625 185.386719 " fill-opacity="1" fill-rule="nonzero"/><path fill="#ad98bd" d="M 99.976562 179.34375 L 97.914062 179.34375 C 97.839844 179.34375 97.777344 179.28125 97.777344 179.203125 C 97.777344 179.128906 97.839844 179.066406 97.914062 179.066406 L 99.976562 179.066406 C 100.050781 179.066406 100.113281 179.128906 100.113281 179.203125 C 100.113281 179.28125 100.050781 179.34375 99.976562 179.34375 Z M 99.976562 179.34375 " fill-opacity="1" fill-rule="nonzero"/><path fill="#ad98bd" d="M 97.914062 179.34375 C 97.839844 179.34375 97.777344 179.28125 97.777344 179.203125 L 97.777344 177.132812 C 97.777344 177.054688 97.839844 176.992188 97.914062 176.992188 C 97.988281 176.992188 98.050781 177.054688 98.050781 177.132812 L 98.050781 179.203125 C 98.050781 179.28125 97.988281 179.34375 97.914062 179.34375 Z M 97.914062 179.34375 " fill-opacity="1" fill-rule="nonzero"/><path fill="#ad98bd" d="M 96.289062 180.980469 C 96.214844 180.980469 96.152344 180.917969 96.152344 180.839844 L 96.152344 178.769531 C 96.152344 178.691406 96.214844 178.628906 96.289062 178.628906 C 96.363281 178.628906 96.425781 178.691406 96.425781 178.769531 L 96.425781 180.839844 C 96.425781 180.917969 96.363281 180.980469 96.289062 180.980469 Z M 96.289062 180.980469 " fill-opacity="1" fill-rule="nonzero"/><path fill="#ad98bd" d="M 94.648438 182.628906 C 94.574219 182.628906 94.511719 182.566406 94.511719 182.488281 L 94.511719 180.417969 C 94.511719 180.339844 94.574219 180.277344 94.648438 180.277344 C 94.722656 180.277344 94.785156 180.339844 94.785156 180.417969 L 94.785156 182.488281 C 94.785156 182.566406 94.722656 182.628906 94.648438 182.628906 Z M 94.648438 182.628906 " fill-opacity="1" fill-rule="nonzero"/><path fill="#ad98bd" d="M 98.351562 180.980469 L 96.289062 180.980469 C 96.214844 180.980469 96.152344 180.917969 96.152344 180.839844 C 96.152344 180.765625 96.214844 180.703125 96.289062 180.703125 L 98.351562 180.703125 C 98.425781 180.703125 98.488281 180.765625 98.488281 180.839844 C 98.488281 180.917969 98.425781 180.980469 98.351562 180.980469 Z M 98.351562 180.980469 " fill-opacity="1" fill-rule="nonzero"/><path fill="#ad98bd" d="M 96.710938 182.628906 L 94.648438 182.628906 C 94.574219 182.628906 94.511719 182.566406 94.511719 182.488281 C 94.511719 182.414062 94.574219 182.351562 94.648438 182.351562 L 96.710938 182.351562 C 96.785156 182.351562 96.847656 182.414062 96.847656 182.488281 C 96.847656 182.566406 96.785156 182.628906 96.710938 182.628906 Z M 96.710938 182.628906 " fill-opacity="1" fill-rule="nonzero"/><path fill="#b5e0df" d="M 91.890625 185.25 L 94.214844 185.25 C 99.34375 185.25 103.503906 189.433594 103.503906 194.59375 L 103.503906 196.929688 L 101.046875 196.929688 C 95.992188 196.929688 91.890625 192.808594 91.890625 187.722656 Z M 91.890625 185.25 " fill-opacity="1" fill-rule="nonzero"/><path fill="#8db4b5" d="M 98.609375 192.144531 C 98.574219 192.144531 98.535156 192.132812 98.511719 192.109375 L 91.792969 185.351562 C 91.742188 185.300781 91.742188 185.214844 91.792969 185.152344 C 91.84375 185.101562 91.929688 185.101562 91.992188 185.152344 L 98.710938 191.910156 C 98.761719 191.957031 98.761719 192.046875 98.710938 192.109375 C 98.6875 192.132812 98.648438 192.144531 98.609375 192.144531 Z M 98.609375 192.144531 " fill-opacity="1" fill-rule="nonzero"/><path fill="#8db4b5" d="M 98.609375 190.410156 L 96.898438 190.410156 C 96.824219 190.410156 96.761719 190.347656 96.761719 190.273438 C 96.761719 190.199219 96.824219 190.136719 96.898438 190.136719 L 98.609375 190.136719 C 98.6875 190.136719 98.746094 190.199219 98.746094 190.273438 C 98.746094 190.347656 98.6875 190.410156 98.609375 190.410156 Z M 98.609375 190.410156 " fill-opacity="1" fill-rule="nonzero"/><path fill="#8db4b5" d="M 96.898438 192.132812 C 96.824219 192.132812 96.761719 192.070312 96.761719 191.996094 L 96.761719 190.273438 C 96.761719 190.199219 96.824219 190.136719 96.898438 190.136719 C 96.972656 190.136719 97.035156 190.199219 97.035156 190.273438 L 97.035156 191.996094 C 97.035156 192.070312 96.972656 192.132812 96.898438 192.132812 Z M 96.898438 192.132812 " fill-opacity="1" fill-rule="nonzero"/><path fill="#8db4b5" d="M 95.542969 190.773438 C 95.46875 190.773438 95.40625 190.710938 95.40625 190.632812 L 95.40625 188.910156 C 95.40625 188.835938 95.46875 188.773438 95.542969 188.773438 C 95.617188 188.773438 95.679688 188.835938 95.679688 188.910156 L 95.679688 190.632812 C 95.679688 190.710938 95.617188 190.773438 95.542969 190.773438 Z M 95.542969 190.773438 " fill-opacity="1" fill-rule="nonzero"/><path fill="#8db4b5" d="M 94.175781 189.398438 C 94.101562 189.398438 94.039062 189.335938 94.039062 189.261719 L 94.039062 187.535156 C 94.039062 187.460938 94.101562 187.398438 94.175781 187.398438 C 94.25 187.398438 94.3125 187.460938 94.3125 187.535156 L 94.3125 189.261719 C 94.3125 189.335938 94.25 189.398438 94.175781 189.398438 Z M 94.175781 189.398438 " fill-opacity="1" fill-rule="nonzero"/><path fill="#8db4b5" d="M 97.257812 189.046875 L 95.542969 189.046875 C 95.46875 189.046875 95.40625 188.984375 95.40625 188.910156 C 95.40625 188.835938 95.46875 188.773438 95.542969 188.773438 L 97.257812 188.773438 C 97.332031 188.773438 97.394531 188.835938 97.394531 188.910156 C 97.394531 188.984375 97.332031 189.046875 97.257812 189.046875 Z M 97.257812 189.046875 " fill-opacity="1" fill-rule="nonzero"/><path fill="#8db4b5" d="M 95.890625 187.675781 L 94.175781 187.675781 C 94.101562 187.675781 94.039062 187.613281 94.039062 187.535156 C 94.039062 187.460938 94.101562 187.398438 94.175781 187.398438 L 95.890625 187.398438 C 95.964844 187.398438 96.027344 187.460938 96.027344 187.535156 C 96.027344 187.613281 95.964844 187.675781 95.890625 187.675781 Z M 95.890625 187.675781 " fill-opacity="1" fill-rule="nonzero"/><path fill="#b5e0df" d="M 91.890625 185.25 L 89.570312 185.25 C 84.441406 185.25 80.28125 189.433594 80.28125 194.59375 L 80.28125 196.929688 L 82.738281 196.929688 C 87.792969 196.929688 91.890625 192.808594 91.890625 187.722656 Z M 91.890625 185.25 " fill-opacity="1" fill-rule="nonzero"/><path fill="#8db4b5" d="M 85.171875 192.144531 C 85.136719 192.144531 85.097656 192.132812 85.074219 192.109375 C 85.023438 192.058594 85.023438 191.972656 85.074219 191.910156 L 91.792969 185.152344 C 91.84375 185.101562 91.929688 185.101562 91.992188 185.152344 C 92.042969 185.199219 92.042969 185.289062 91.992188 185.351562 L 85.273438 192.109375 C 85.246094 192.132812 85.210938 192.144531 85.171875 192.144531 Z M 85.171875 192.144531 " fill-opacity="1" fill-rule="nonzero"/><path fill="#8db4b5" d="M 86.886719 190.410156 L 85.171875 190.410156 C 85.097656 190.410156 85.035156 190.347656 85.035156 190.273438 C 85.035156 190.199219 85.097656 190.136719 85.171875 190.136719 L 86.886719 190.136719 C 86.960938 190.136719 87.023438 190.199219 87.023438 190.273438 C 87.023438 190.347656 86.972656 190.410156 86.886719 190.410156 Z M 86.886719 190.410156 " fill-opacity="1" fill-rule="nonzero"/><path fill="#8db4b5" d="M 86.886719 192.132812 C 86.8125 192.132812 86.75 192.070312 86.75 191.996094 L 86.75 190.273438 C 86.75 190.199219 86.8125 190.136719 86.886719 190.136719 C 86.960938 190.136719 87.023438 190.199219 87.023438 190.273438 L 87.023438 191.996094 C 87.035156 192.070312 86.972656 192.132812 86.886719 192.132812 Z M 86.886719 192.132812 " fill-opacity="1" fill-rule="nonzero"/><path fill="#8db4b5" d="M 88.253906 190.773438 C 88.179688 190.773438 88.117188 190.710938 88.117188 190.632812 L 88.117188 188.910156 C 88.117188 188.835938 88.179688 188.773438 88.253906 188.773438 C 88.328125 188.773438 88.390625 188.835938 88.390625 188.910156 L 88.390625 190.632812 C 88.390625 190.710938 88.328125 190.773438 88.253906 190.773438 Z M 88.253906 190.773438 " fill-opacity="1" fill-rule="nonzero"/><path fill="#8db4b5" d="M 89.605469 189.398438 C 89.53125 189.398438 89.46875 189.335938 89.46875 189.261719 L 89.46875 187.535156 C 89.46875 187.460938 89.53125 187.398438 89.605469 187.398438 C 89.683594 187.398438 89.742188 187.460938 89.742188 187.535156 L 89.742188 189.261719 C 89.757812 189.335938 89.695312 189.398438 89.605469 189.398438 Z M 89.605469 189.398438 " fill-opacity="1" fill-rule="nonzero"/><path fill="#8db4b5" d="M 88.253906 189.046875 L 86.539062 189.046875 C 86.464844 189.046875 86.402344 188.984375 86.402344 188.910156 C 86.402344 188.835938 86.464844 188.773438 86.539062 188.773438 L 88.253906 188.773438 C 88.328125 188.773438 88.390625 188.835938 88.390625 188.910156 C 88.390625 188.984375 88.328125 189.046875 88.253906 189.046875 Z M 88.253906 189.046875 " fill-opacity="1" fill-rule="nonzero"/><path fill="#8db4b5" d="M 89.605469 187.675781 L 87.894531 187.675781 C 87.820312 187.675781 87.757812 187.613281 87.757812 187.535156 C 87.757812 187.460938 87.820312 187.398438 87.894531 187.398438 L 89.605469 187.398438 C 89.683594 187.398438 89.742188 187.460938 89.742188 187.535156 C 89.742188 187.613281 89.695312 187.675781 89.605469 187.675781 Z M 89.605469 187.675781 " fill-opacity="1" fill-rule="nonzero"/><path fill="#0d7874" d="M 92.179688 185.527344 L 85.023438 185.527344 C 79.746094 185.527344 75.460938 181.203125 75.460938 175.90625 L 75.460938 168.710938 L 82.75 168.710938 C 87.957031 168.710938 92.191406 172.972656 92.191406 178.207031 L 92.191406 185.527344 Z M 76.007812 169.261719 L 76.007812 175.90625 C 76.007812 180.902344 80.058594 184.976562 85.023438 184.976562 L 91.617188 184.976562 L 91.617188 178.207031 C 91.617188 173.285156 87.632812 169.273438 82.738281 169.273438 L 76.007812 169.273438 Z M 76.007812 169.261719 " fill-opacity="1" fill-rule="nonzero"/><path fill="#0d7874" d="M 98.773438 185.527344 L 91.617188 185.527344 L 91.617188 178.191406 C 91.617188 172.960938 95.855469 168.699219 101.058594 168.699219 L 108.347656 168.699219 L 108.347656 175.90625 C 108.335938 181.203125 104.050781 185.527344 98.773438 185.527344 Z M 92.179688 184.964844 L 98.773438 184.964844 C 103.742188 184.964844 107.789062 180.890625 107.789062 175.894531 L 107.789062 169.261719 L 101.058594 169.261719 C 96.164062 169.261719 92.179688 173.273438 92.179688 178.191406 Z M 92.179688 184.964844 " fill-opacity="1" fill-rule="nonzero"/><g clip-path="url(#6ed460d859)"><path fill="#0d7874" d="M 105.863281 199.292969 L 101.058594 199.292969 C 95.855469 199.292969 91.617188 195.03125 91.617188 189.796875 L 91.617188 184.964844 L 96.300781 184.964844 C 101.578125 184.964844 105.863281 189.285156 105.863281 194.582031 Z M 92.179688 185.527344 L 92.179688 189.796875 C 92.179688 194.71875 96.164062 198.730469 101.058594 198.730469 L 105.304688 198.730469 L 105.304688 194.582031 C 105.304688 189.585938 101.257812 185.511719 96.289062 185.511719 L 92.179688 185.511719 Z M 92.179688 185.527344 " fill-opacity="1" fill-rule="nonzero"/></g><g clip-path="url(#56f0bae241)"><path fill="#0d7874" d="M 82.738281 199.292969 L 77.933594 199.292969 L 77.933594 194.582031 C 77.933594 189.273438 82.230469 184.964844 87.496094 184.964844 L 92.179688 184.964844 L 92.179688 189.796875 C 92.179688 195.03125 87.941406 199.292969 82.738281 199.292969 Z M 78.480469 198.742188 L 82.726562 198.742188 C 87.621094 198.742188 91.605469 194.730469 91.605469 189.808594 L 91.605469 185.527344 L 87.484375 185.527344 C 82.515625 185.527344 78.46875 189.597656 78.46875 194.59375 L 78.46875 198.742188 Z M 78.480469 198.742188 " fill-opacity="1" fill-rule="nonzero"/></g><path fill="#0d7874" d="M 105.628906 185.761719 C 105.617188 185.761719 105.589844 185.761719 105.578125 185.75 L 105.542969 185.738281 C 105.527344 185.738281 105.527344 185.726562 105.515625 185.726562 C 105.503906 185.714844 105.492188 185.714844 105.480469 185.699219 C 105.464844 185.6875 105.464844 185.675781 105.453125 185.664062 C 105.441406 185.652344 105.441406 185.636719 105.441406 185.613281 L 105.441406 185.574219 C 105.441406 185.5625 105.441406 185.550781 105.453125 185.550781 C 105.480469 185.476562 105.925781 184.238281 107.082031 183.726562 C 107.828125 183.402344 108.683594 183.453125 109.628906 183.875 C 109.6875 183.902344 109.726562 183.976562 109.703125 184.050781 C 109.6875 184.089844 109.355469 185.027344 108.460938 185.601562 C 108.421875 185.625 108.359375 185.625 108.324219 185.601562 C 107.167969 184.949219 105.925781 185.601562 105.691406 185.726562 C 105.675781 185.75 105.652344 185.761719 105.628906 185.761719 Z M 108.113281 183.800781 C 107.789062 183.800781 107.476562 183.863281 107.191406 183.988281 C 106.472656 184.300781 106.050781 184.949219 105.851562 185.339844 L 107.527344 184.652344 C 107.601562 184.625 107.675781 184.652344 107.714844 184.726562 C 107.726562 184.738281 107.726562 184.761719 107.726562 184.777344 C 107.726562 184.824219 107.691406 184.886719 107.640625 184.902344 L 107.28125 185.050781 C 107.640625 185.0625 108.011719 185.136719 108.386719 185.324219 C 108.96875 184.925781 109.28125 184.339844 109.390625 184.089844 C 108.945312 183.902344 108.507812 183.800781 108.113281 183.800781 Z M 108.113281 183.800781 " fill-opacity="1" fill-rule="nonzero"/><path fill="#0d7874" d="M 105.589844 185.738281 C 105.542969 185.738281 105.480469 185.699219 105.464844 185.652344 C 105.441406 185.574219 105.464844 185.5 105.542969 185.464844 L 107.527344 184.652344 C 107.601562 184.625 107.675781 184.652344 107.714844 184.726562 C 107.738281 184.800781 107.714844 184.875 107.640625 184.914062 L 105.640625 185.738281 Z M 105.589844 185.738281 " fill-opacity="1" fill-rule="nonzero"/><path fill="#0d7874" d="M 108.148438 187.5 C 107.9375 187.5 107.714844 187.472656 107.476562 187.425781 C 106.671875 187.222656 105.988281 186.648438 105.453125 185.726562 C 105.429688 185.675781 105.429688 185.613281 105.464844 185.5625 L 105.503906 185.527344 L 105.554688 185.5 C 105.8125 185.351562 107.167969 184.652344 108.460938 185.375 C 108.992188 185.675781 109.453125 186.175781 109.800781 186.886719 C 109.839844 186.949219 109.8125 187.035156 109.75 187.074219 C 109.726562 187.074219 109.042969 187.5 108.148438 187.5 Z M 105.902344 185.886719 C 106.359375 186.5625 106.917969 186.988281 107.554688 187.148438 C 108.421875 187.363281 109.21875 187.035156 109.503906 186.886719 C 109.179688 186.300781 108.796875 185.875 108.335938 185.613281 C 107.417969 185.101562 106.433594 185.402344 105.964844 185.613281 L 107.703125 186.136719 C 107.765625 186.148438 107.800781 186.210938 107.800781 186.273438 L 107.800781 186.3125 C 107.777344 186.386719 107.703125 186.425781 107.628906 186.398438 Z M 105.902344 185.886719 " fill-opacity="1" fill-rule="nonzero"/><path fill="#0d7874" d="M 107.652344 186.414062 L 107.613281 186.414062 L 105.542969 185.789062 C 105.464844 185.761719 105.429688 185.6875 105.453125 185.613281 C 105.480469 185.539062 105.554688 185.5 105.628906 185.527344 L 107.703125 186.148438 C 107.777344 186.175781 107.8125 186.25 107.789062 186.324219 C 107.777344 186.375 107.714844 186.414062 107.652344 186.414062 Z M 107.652344 186.414062 " fill-opacity="1" fill-rule="nonzero"/><path fill="#0d7874" d="M 78.15625 185.761719 C 78.132812 185.761719 78.105469 185.761719 78.09375 185.75 C 77.859375 185.613281 76.617188 184.976562 75.460938 185.625 C 75.410156 185.652344 75.363281 185.652344 75.324219 185.625 C 74.429688 185.050781 74.09375 184.113281 74.082031 184.078125 C 74.058594 184.015625 74.09375 183.925781 74.15625 183.902344 C 75.113281 183.476562 75.972656 183.425781 76.703125 183.75 C 77.871094 184.265625 78.304688 185.5 78.332031 185.574219 C 78.332031 185.589844 78.332031 185.589844 78.34375 185.601562 L 78.34375 185.625 C 78.34375 185.636719 78.34375 185.664062 78.332031 185.675781 C 78.332031 185.6875 78.316406 185.699219 78.304688 185.714844 C 78.292969 185.726562 78.28125 185.738281 78.269531 185.738281 C 78.257812 185.738281 78.257812 185.75 78.242188 185.75 L 78.207031 185.761719 C 78.195312 185.75 78.179688 185.761719 78.15625 185.761719 Z M 76.207031 184.640625 C 76.21875 184.640625 76.242188 184.640625 76.257812 184.652344 L 77.933594 185.351562 C 77.734375 184.964844 77.3125 184.3125 76.589844 184 C 75.957031 183.726562 75.214844 183.75 74.394531 184.101562 C 74.503906 184.351562 74.816406 184.9375 75.398438 185.339844 C 75.773438 185.152344 76.15625 185.074219 76.503906 185.0625 L 76.144531 184.914062 C 76.09375 184.886719 76.058594 184.839844 76.058594 184.789062 C 76.058594 184.777344 76.058594 184.75 76.070312 184.738281 C 76.105469 184.664062 76.15625 184.640625 76.207031 184.640625 Z M 76.207031 184.640625 " fill-opacity="1" fill-rule="nonzero"/><path fill="#0d7874" d="M 78.207031 185.738281 C 78.195312 185.738281 78.167969 185.738281 78.15625 185.726562 L 76.15625 184.902344 C 76.082031 184.875 76.058594 184.789062 76.082031 184.714844 C 76.105469 184.640625 76.195312 184.613281 76.269531 184.640625 L 78.269531 185.464844 C 78.34375 185.488281 78.367188 185.574219 78.34375 185.652344 C 78.316406 185.714844 78.257812 185.738281 78.207031 185.738281 Z M 78.207031 185.738281 " fill-opacity="1" fill-rule="nonzero"/><path fill="#0d7874" d="M 75.636719 187.5 C 74.742188 187.5 74.058594 187.085938 74.019531 187.0625 C 73.957031 187.023438 73.933594 186.949219 73.972656 186.875 C 74.332031 186.175781 74.777344 185.664062 75.3125 185.363281 C 76.589844 184.652344 77.957031 185.351562 78.21875 185.488281 L 78.269531 185.511719 L 78.304688 185.550781 C 78.34375 185.601562 78.34375 185.664062 78.316406 185.714844 C 77.785156 186.636719 77.101562 187.210938 76.292969 187.410156 C 76.070312 187.472656 75.847656 187.5 75.636719 187.5 Z M 74.292969 186.886719 C 74.578125 187.035156 75.375 187.363281 76.242188 187.148438 C 76.878906 186.988281 77.4375 186.5625 77.894531 185.886719 L 76.183594 186.398438 C 76.105469 186.425781 76.03125 186.375 76.007812 186.3125 L 76.007812 186.273438 C 76.007812 186.210938 76.046875 186.164062 76.105469 186.136719 L 77.847656 185.613281 C 77.375 185.402344 76.394531 185.101562 75.472656 185.613281 C 75.003906 185.863281 74.617188 186.289062 74.292969 186.886719 Z M 75.398438 185.488281 Z M 75.398438 185.488281 " fill-opacity="1" fill-rule="nonzero"/><path fill="#0d7874" d="M 76.132812 186.414062 C 76.070312 186.414062 76.019531 186.375 75.996094 186.3125 C 75.972656 186.238281 76.019531 186.164062 76.082031 186.136719 L 78.15625 185.511719 C 78.230469 185.488281 78.304688 185.539062 78.332031 185.601562 C 78.355469 185.675781 78.304688 185.75 78.242188 185.777344 L 76.167969 186.398438 C 76.15625 186.398438 76.144531 186.414062 76.132812 186.414062 Z M 76.132812 186.414062 " fill-opacity="1" fill-rule="nonzero"/><path fill="#0d7874" d="M 92.179688 195.554688 C 92.179688 195.636719 92.148438 195.703125 92.09375 195.757812 C 92.039062 195.816406 91.972656 195.84375 91.890625 195.84375 C 91.8125 195.84375 91.746094 195.816406 91.691406 195.757812 C 91.632812 195.703125 91.605469 195.636719 91.605469 195.554688 C 91.605469 195.476562 91.632812 195.410156 91.691406 195.351562 C 91.746094 195.296875 91.8125 195.269531 91.890625 195.269531 C 91.972656 195.269531 92.039062 195.296875 92.09375 195.351562 C 92.148438 195.410156 92.179688 195.476562 92.179688 195.554688 Z M 92.179688 195.554688 " fill-opacity="1" fill-rule="nonzero"/><path fill="#0d7874" d="M 92.179688 196.582031 C 92.179688 196.660156 92.148438 196.726562 92.09375 196.785156 C 92.039062 196.839844 91.972656 196.867188 91.890625 196.867188 C 91.8125 196.867188 91.746094 196.839844 91.691406 196.785156 C 91.632812 196.726562 91.605469 196.660156 91.605469 196.582031 C 91.605469 196.5 91.632812 196.433594 91.691406 196.378906 C 91.746094 196.320312 91.8125 196.292969 91.890625 196.292969 C 91.972656 196.292969 92.039062 196.320312 92.09375 196.378906 C 92.148438 196.433594 92.179688 196.5 92.179688 196.582031 Z M 92.179688 196.582031 " fill-opacity="1" fill-rule="nonzero"/><path fill="#0d7874" d="M 92.179688 197.605469 C 92.179688 197.683594 92.148438 197.75 92.09375 197.808594 C 92.039062 197.863281 91.972656 197.890625 91.890625 197.890625 C 91.8125 197.890625 91.746094 197.863281 91.691406 197.808594 C 91.632812 197.75 91.605469 197.683594 91.605469 197.605469 C 91.605469 197.527344 91.632812 197.457031 91.691406 197.402344 C 91.746094 197.34375 91.8125 197.316406 91.890625 197.316406 C 91.972656 197.316406 92.039062 197.34375 92.09375 197.402344 C 92.148438 197.457031 92.179688 197.527344 92.179688 197.605469 Z M 92.179688 197.605469 " fill-opacity="1" fill-rule="nonzero"/><path fill="#0d7874" d="M 92.179688 198.640625 C 92.179688 198.722656 92.148438 198.789062 92.09375 198.84375 C 92.039062 198.902344 91.972656 198.929688 91.890625 198.929688 C 91.8125 198.929688 91.746094 198.902344 91.691406 198.84375 C 91.632812 198.789062 91.605469 198.722656 91.605469 198.640625 C 91.605469 198.5625 91.632812 198.496094 91.691406 198.4375 C 91.746094 198.382812 91.8125 198.355469 91.890625 198.355469 C 91.972656 198.355469 92.039062 198.382812 92.09375 198.4375 C 92.148438 198.496094 92.179688 198.5625 92.179688 198.640625 Z M 92.179688 198.640625 " fill-opacity="1" fill-rule="nonzero"/><path fill="#0d7874" d="M 85.234375 166.851562 C 85.234375 166.921875 85.210938 166.980469 85.164062 167.027344 C 85.113281 167.078125 85.054688 167.101562 84.988281 167.101562 C 84.917969 167.101562 84.859375 167.078125 84.8125 167.027344 C 84.761719 166.980469 84.738281 166.921875 84.738281 166.851562 C 84.738281 166.78125 84.761719 166.722656 84.8125 166.675781 C 84.859375 166.625 84.917969 166.601562 84.988281 166.601562 C 85.054688 166.601562 85.113281 166.625 85.164062 166.675781 C 85.210938 166.722656 85.234375 166.78125 85.234375 166.851562 Z M 85.234375 166.851562 " fill-opacity="1" fill-rule="nonzero"/><path fill="#0d7874" d="M 86.714844 166.851562 C 86.714844 166.921875 86.6875 166.980469 86.640625 167.027344 C 86.59375 167.078125 86.535156 167.101562 86.464844 167.101562 C 86.394531 167.101562 86.339844 167.078125 86.289062 167.027344 C 86.242188 166.980469 86.214844 166.921875 86.214844 166.851562 C 86.214844 166.78125 86.242188 166.722656 86.289062 166.675781 C 86.339844 166.625 86.394531 166.601562 86.464844 166.601562 C 86.535156 166.601562 86.59375 166.625 86.640625 166.675781 C 86.6875 166.722656 86.714844 166.78125 86.714844 166.851562 Z M 86.714844 166.851562 " fill-opacity="1" fill-rule="nonzero"/><path fill="#0d7874" d="M 88.105469 167.1875 C 88.105469 167.257812 88.082031 167.316406 88.03125 167.363281 C 87.984375 167.414062 87.925781 167.4375 87.855469 167.4375 C 87.789062 167.4375 87.730469 167.414062 87.679688 167.363281 C 87.632812 167.316406 87.609375 167.257812 87.609375 167.1875 C 87.609375 167.121094 87.632812 167.058594 87.679688 167.011719 C 87.730469 166.960938 87.789062 166.9375 87.855469 166.9375 C 87.925781 166.9375 87.984375 166.960938 88.03125 167.011719 C 88.082031 167.058594 88.105469 167.121094 88.105469 167.1875 Z M 88.105469 167.1875 " fill-opacity="1" fill-rule="nonzero"/><path fill="#0d7874" d="M 99.058594 166.851562 C 99.058594 166.921875 99.035156 166.980469 98.984375 167.027344 C 98.9375 167.078125 98.878906 167.101562 98.808594 167.101562 C 98.742188 167.101562 98.683594 167.078125 98.632812 167.027344 C 98.585938 166.980469 98.5625 166.921875 98.5625 166.851562 C 98.5625 166.78125 98.585938 166.722656 98.632812 166.675781 C 98.683594 166.625 98.742188 166.601562 98.808594 166.601562 C 98.878906 166.601562 98.9375 166.625 98.984375 166.675781 C 99.035156 166.722656 99.058594 166.78125 99.058594 166.851562 Z M 99.058594 166.851562 " fill-opacity="1" fill-rule="nonzero"/><path fill="#0d7874" d="M 97.582031 166.851562 C 97.582031 166.921875 97.554688 166.980469 97.507812 167.027344 C 97.460938 167.078125 97.402344 167.101562 97.332031 167.101562 C 97.261719 167.101562 97.203125 167.078125 97.15625 167.027344 C 97.109375 166.980469 97.082031 166.921875 97.082031 166.851562 C 97.082031 166.78125 97.109375 166.722656 97.15625 166.675781 C 97.203125 166.625 97.261719 166.601562 97.332031 166.601562 C 97.402344 166.601562 97.460938 166.625 97.507812 166.675781 C 97.554688 166.722656 97.582031 166.78125 97.582031 166.851562 Z M 97.582031 166.851562 " fill-opacity="1" fill-rule="nonzero"/><path fill="#0d7874" d="M 96.175781 167.1875 C 96.175781 167.257812 96.152344 167.316406 96.105469 167.363281 C 96.054688 167.414062 95.996094 167.4375 95.929688 167.4375 C 95.859375 167.4375 95.800781 167.414062 95.753906 167.363281 C 95.703125 167.316406 95.679688 167.257812 95.679688 167.1875 C 95.679688 167.121094 95.703125 167.058594 95.753906 167.011719 C 95.800781 166.960938 95.859375 166.9375 95.929688 166.9375 C 95.996094 166.9375 96.054688 166.960938 96.105469 167.011719 C 96.152344 167.058594 96.175781 167.121094 96.175781 167.1875 Z M 96.175781 167.1875 " fill-opacity="1" fill-rule="nonzero"/><path fill="#0d7874" d="M 91.890625 172.246094 C 91.832031 172.246094 91.78125 172.210938 91.753906 172.148438 C 90.886719 169.386719 88.9375 168.023438 88.925781 168.011719 C 88.863281 167.976562 88.847656 167.886719 88.886719 167.8125 C 88.925781 167.75 89.011719 167.738281 89.085938 167.773438 C 89.171875 167.835938 91.121094 169.199219 92.027344 172.058594 C 92.054688 172.136719 92.015625 172.210938 91.941406 172.234375 C 91.929688 172.246094 91.90625 172.246094 91.890625 172.246094 Z M 91.890625 172.246094 " fill-opacity="1" fill-rule="nonzero"/><path fill="#0d7874" d="M 91.890625 172.246094 C 91.878906 172.246094 91.867188 172.246094 91.855469 172.234375 C 91.78125 172.210938 91.742188 172.136719 91.769531 172.058594 C 92.675781 169.210938 94.625 167.835938 94.710938 167.773438 C 94.773438 167.738281 94.859375 167.75 94.910156 167.8125 C 94.949219 167.875 94.933594 167.960938 94.871094 168.011719 C 94.847656 168.023438 92.910156 169.386719 92.042969 172.148438 C 92.003906 172.210938 91.953125 172.246094 91.890625 172.246094 Z M 91.890625 172.246094 " fill-opacity="1" fill-rule="nonzero"/><g clip-path="url(#4f8dca434c)"><path fill="#0d7874" d="M 113.652344 183.289062 C 113.652344 188.335938 111.949219 192.984375 109.082031 196.691406 C 108.980469 196.816406 109.066406 197.003906 109.230469 197.003906 C 109.292969 197.003906 109.339844 196.980469 109.378906 196.929688 C 112.382812 193.046875 114.011719 188.296875 114.011719 183.300781 C 114.011719 180.890625 113.625 178.53125 112.894531 176.308594 C 112.867188 176.230469 112.792969 176.183594 112.707031 176.183594 C 112.582031 176.183594 112.484375 176.308594 112.53125 176.433594 C 113.265625 178.582031 113.652344 180.890625 113.652344 183.289062 Z M 113.652344 183.289062 " fill-opacity="1" fill-rule="nonzero"/></g><g clip-path="url(#5db33c65ce)"><path fill="#0d7874" d="M 79.820312 164.753906 C 79.820312 164.902344 79.980469 164.988281 80.105469 164.914062 C 83.507812 162.703125 87.546875 161.417969 91.878906 161.417969 C 96.214844 161.417969 100.261719 162.703125 103.652344 164.914062 C 103.777344 165.003906 103.9375 164.902344 103.9375 164.753906 C 103.9375 164.691406 103.902344 164.628906 103.851562 164.589844 C 100.335938 162.277344 96.214844 161.042969 91.890625 161.042969 C 87.570312 161.042969 83.445312 162.277344 79.90625 164.578125 C 79.859375 164.613281 79.820312 164.675781 79.820312 164.753906 Z M 79.820312 164.753906 " fill-opacity="1" fill-rule="nonzero"/></g><g clip-path="url(#9af70ffd7d)"><path fill="#0d7874" d="M 70.144531 183.289062 C 70.144531 180.890625 70.53125 178.582031 71.25 176.417969 C 71.289062 176.292969 71.203125 176.167969 71.078125 176.167969 C 70.992188 176.167969 70.929688 176.21875 70.890625 176.292969 C 70.160156 178.519531 69.773438 180.878906 69.773438 183.289062 C 69.773438 188.285156 71.402344 193.03125 74.40625 196.917969 C 74.441406 196.96875 74.492188 196.992188 74.554688 196.992188 C 74.714844 196.992188 74.804688 196.804688 74.703125 196.679688 C 71.847656 192.984375 70.144531 188.335938 70.144531 183.289062 Z M 70.144531 183.289062 " fill-opacity="1" fill-rule="nonzero"/></g><g fill="#0d7874" fill-opacity="1"><g transform="translate(117.194522, 194.871858)"><g><path d="M 11.515625 0.4375 C 10.140625 0.4375 8.910156 0.316406 7.828125 0.078125 C 6.742188 -0.160156 5.550781 -0.476562 4.25 -0.875 C 3.457031 -1.164062 2.863281 -1.320312 2.46875 -1.34375 L 2.78125 -8.546875 L 5.328125 -8.546875 L 6 -3.375 C 6.445312 -2.945312 7.179688 -2.566406 8.203125 -2.234375 C 9.222656 -1.910156 10.34375 -1.75 11.5625 -1.75 C 13.570312 -1.75 15.097656 -2.195312 16.140625 -3.09375 C 17.191406 -4 17.71875 -5.242188 17.71875 -6.828125 C 17.71875 -7.867188 17.429688 -8.757812 16.859375 -9.5 C 16.296875 -10.238281 15.539062 -10.875 14.59375 -11.40625 C 13.65625 -11.9375 12.367188 -12.554688 10.734375 -13.265625 C 9.242188 -13.929688 7.945312 -14.609375 6.84375 -15.296875 C 5.75 -15.984375 4.796875 -16.898438 3.984375 -18.046875 C 3.179688 -19.203125 2.78125 -20.59375 2.78125 -22.21875 C 2.78125 -23.664062 3.171875 -24.96875 3.953125 -26.125 C 4.734375 -27.28125 5.859375 -28.1875 7.328125 -28.84375 C 8.796875 -29.507812 10.515625 -29.84375 12.484375 -29.84375 C 13.691406 -29.84375 14.765625 -29.75 15.703125 -29.5625 C 16.648438 -29.375 17.71875 -29.125 18.90625 -28.8125 C 19.4375 -28.625 19.890625 -28.503906 20.265625 -28.453125 L 20.03125 -21.78125 L 17.609375 -21.78125 L 16.8125 -26.65625 C 16.539062 -26.925781 15.988281 -27.179688 15.15625 -27.421875 C 14.320312 -27.660156 13.414062 -27.78125 12.4375 -27.78125 C 10.601562 -27.78125 9.21875 -27.394531 8.28125 -26.625 C 7.34375 -25.851562 6.875 -24.738281 6.875 -23.28125 C 6.875 -22.21875 7.15625 -21.328125 7.71875 -20.609375 C 8.289062 -19.898438 9 -19.296875 9.84375 -18.796875 C 10.695312 -18.296875 12.050781 -17.609375 13.90625 -16.734375 C 15.625 -15.910156 17.023438 -15.164062 18.109375 -14.5 C 19.203125 -13.84375 20.140625 -12.976562 20.921875 -11.90625 C 21.703125 -10.832031 22.09375 -9.550781 22.09375 -8.0625 C 22.09375 -6.65625 21.703125 -5.300781 20.921875 -4 C 20.140625 -2.707031 18.945312 -1.644531 17.34375 -0.8125 C 15.738281 0.0195312 13.796875 0.4375 11.515625 0.4375 Z M 11.515625 0.4375 "/></g></g></g><g fill="#0d7874" fill-opacity="1"><g transform="translate(140.792089, 194.871858)"><g><path d="M 11.5625 0.4375 C 8.351562 0.4375 5.90625 -0.609375 4.21875 -2.703125 C 2.539062 -4.796875 1.703125 -7.585938 1.703125 -11.078125 C 1.703125 -13.390625 2.140625 -15.414062 3.015625 -17.15625 C 3.890625 -18.90625 5.113281 -20.257812 6.6875 -21.21875 C 8.269531 -22.175781 10.066406 -22.65625 12.078125 -22.65625 C 14.546875 -22.65625 16.457031 -21.972656 17.8125 -20.609375 C 19.175781 -19.242188 19.898438 -17.285156 19.984375 -14.734375 C 19.984375 -13.117188 19.890625 -11.890625 19.703125 -11.046875 L 6.046875 -11.046875 C 6.097656 -8.421875 6.703125 -6.304688 7.859375 -4.703125 C 9.023438 -3.097656 10.679688 -2.296875 12.828125 -2.296875 C 13.890625 -2.296875 14.992188 -2.488281 16.140625 -2.875 C 17.296875 -3.257812 18.191406 -3.71875 18.828125 -4.25 L 19.59375 -2.5 C 18.820312 -1.707031 17.679688 -1.019531 16.171875 -0.4375 C 14.660156 0.144531 13.125 0.4375 11.5625 0.4375 Z M 15.609375 -13.15625 C 15.691406 -13.707031 15.734375 -14.273438 15.734375 -14.859375 C 15.703125 -16.578125 15.335938 -17.929688 14.640625 -18.921875 C 13.941406 -19.921875 12.835938 -20.421875 11.328125 -20.421875 C 9.785156 -20.421875 8.554688 -19.863281 7.640625 -18.75 C 6.734375 -17.632812 6.210938 -15.769531 6.078125 -13.15625 Z M 15.609375 -13.15625 "/></g></g></g><g fill="#0d7874" fill-opacity="1"><g transform="translate(162.403339, 194.871858)"><g><path d="M 1.75 -1.953125 L 4.171875 -2.296875 L 4.171875 -19 L 1.3125 -19.703125 L 1.3125 -21.859375 L 7 -22.5625 L 7.703125 -22.046875 L 7.953125 -20.46875 L 7.90625 -19.1875 C 8.832031 -20.039062 10.097656 -20.816406 11.703125 -21.515625 C 13.304688 -22.210938 14.742188 -22.5625 16.015625 -22.5625 C 17.441406 -22.5625 18.59375 -22.320312 19.46875 -21.84375 C 20.34375 -21.375 21.003906 -20.632812 21.453125 -19.625 C 22.304688 -20.34375 23.492188 -21.007812 25.015625 -21.625 C 26.535156 -22.25 27.957031 -22.5625 29.28125 -22.5625 C 30.925781 -22.5625 32.210938 -22.25 33.140625 -21.625 C 34.066406 -21.007812 34.722656 -20.046875 35.109375 -18.734375 C 35.492188 -17.421875 35.6875 -15.664062 35.6875 -13.46875 L 35.6875 -2.296875 L 38.546875 -1.953125 L 38.546875 0 L 29.078125 0 L 29.078125 -1.953125 L 31.546875 -2.296875 L 31.546875 -13.34375 C 31.546875 -14.882812 31.429688 -16.109375 31.203125 -17.015625 C 30.984375 -17.929688 30.5625 -18.613281 29.9375 -19.0625 C 29.3125 -19.519531 28.414062 -19.75 27.25 -19.75 C 26.382812 -19.75 25.457031 -19.554688 24.46875 -19.171875 C 23.488281 -18.785156 22.65625 -18.328125 21.96875 -17.796875 C 22.207031 -16.765625 22.328125 -15.296875 22.328125 -13.390625 L 22.328125 -2.296875 L 25.15625 -1.953125 L 25.15625 0 L 15.53125 0 L 15.53125 -1.953125 L 18.15625 -2.296875 L 18.15625 -13.4375 C 18.15625 -15.019531 18.054688 -16.25 17.859375 -17.125 C 17.660156 -18 17.28125 -18.65625 16.71875 -19.09375 C 16.164062 -19.53125 15.320312 -19.75 14.1875 -19.75 C 13.226562 -19.75 12.210938 -19.507812 11.140625 -19.03125 C 10.066406 -18.550781 9.132812 -17.992188 8.34375 -17.359375 L 8.34375 -2.296875 L 11 -1.953125 L 11 0 L 1.75 0 Z M 1.75 -1.953125 "/></g></g></g><g fill="#0d7874" fill-opacity="1"><g transform="translate(201.931264, 194.871858)"><g><path d="M 1.78125 -5.953125 C 1.78125 -8.441406 3.023438 -10.273438 5.515625 -11.453125 C 8.015625 -12.640625 11.171875 -13.269531 14.984375 -13.34375 L 14.984375 -14.46875 C 14.984375 -15.707031 14.847656 -16.679688 14.578125 -17.390625 C 14.316406 -18.109375 13.859375 -18.632812 13.203125 -18.96875 C 12.554688 -19.300781 11.640625 -19.46875 10.453125 -19.46875 C 9.097656 -19.46875 7.882812 -19.273438 6.8125 -18.890625 C 5.738281 -18.503906 4.671875 -18.035156 3.609375 -17.484375 L 2.625 -19.546875 C 2.96875 -19.835938 3.601562 -20.222656 4.53125 -20.703125 C 5.457031 -21.179688 6.53125 -21.601562 7.75 -21.96875 C 8.96875 -22.34375 10.1875 -22.53125 11.40625 -22.53125 C 13.28125 -22.53125 14.765625 -22.269531 15.859375 -21.75 C 16.960938 -21.238281 17.753906 -20.410156 18.234375 -19.265625 C 18.710938 -18.128906 18.953125 -16.609375 18.953125 -14.703125 L 18.953125 -1.953125 L 21.296875 -1.953125 L 21.296875 -0.203125 C 20.765625 -0.0664062 20.09375 0.0625 19.28125 0.1875 C 18.476562 0.320312 17.773438 0.390625 17.171875 0.390625 C 16.421875 0.390625 15.914062 0.273438 15.65625 0.046875 C 15.394531 -0.171875 15.265625 -0.664062 15.265625 -1.4375 L 15.265625 -2.734375 C 14.460938 -1.941406 13.484375 -1.210938 12.328125 -0.546875 C 11.179688 0.109375 9.878906 0.4375 8.421875 0.4375 C 6.515625 0.4375 4.929688 -0.109375 3.671875 -1.203125 C 2.410156 -2.304688 1.78125 -3.890625 1.78125 -5.953125 Z M 10.125 -2.265625 C 10.820312 -2.265625 11.617188 -2.472656 12.515625 -2.890625 C 13.421875 -3.316406 14.242188 -3.820312 14.984375 -4.40625 L 14.984375 -11.25 C 12.097656 -11.25 9.914062 -10.800781 8.4375 -9.90625 C 6.96875 -9.019531 6.234375 -7.863281 6.234375 -6.4375 C 6.234375 -5.007812 6.582031 -3.957031 7.28125 -3.28125 C 7.988281 -2.601562 8.9375 -2.265625 10.125 -2.265625 Z M 10.125 -2.265625 "/></g></g></g><g fill="#0d7874" fill-opacity="1"><g transform="translate(224.217864, 194.871858)"><g><path d="M 4.171875 -19 L 1.3125 -19.703125 L 1.3125 -21.859375 L 7 -22.5625 L 7.109375 -22.5625 L 7.953125 -21.859375 L 7.953125 -20.1875 L 7.90625 -19.234375 C 8.863281 -20.078125 10.125 -20.84375 11.6875 -21.53125 C 13.25 -22.21875 14.742188 -22.5625 16.171875 -22.5625 C 17.835938 -22.5625 19.128906 -22.242188 20.046875 -21.609375 C 20.960938 -20.972656 21.601562 -20 21.96875 -18.6875 C 22.34375 -17.382812 22.53125 -15.617188 22.53125 -13.390625 L 22.53125 -2.265625 L 25.3125 -1.984375 L 25.3125 0 L 15.890625 0 L 15.890625 -1.953125 L 18.359375 -2.265625 L 18.359375 -13.4375 C 18.359375 -15 18.25 -16.222656 18.03125 -17.109375 C 17.820312 -17.992188 17.425781 -18.65625 16.84375 -19.09375 C 16.257812 -19.53125 15.410156 -19.75 14.296875 -19.75 C 13.347656 -19.75 12.328125 -19.507812 11.234375 -19.03125 C 10.148438 -18.550781 9.1875 -17.992188 8.34375 -17.359375 L 8.34375 -2.296875 L 11.046875 -1.953125 L 11.046875 0 L 1.671875 0 L 1.671875 -1.953125 L 4.171875 -2.296875 Z M 4.171875 -19 "/></g></g></g><g fill="#0d7874" fill-opacity="1"><g transform="translate(250.596299, 194.871858)"><g><path d="M 1.78125 -5.953125 C 1.78125 -8.441406 3.023438 -10.273438 5.515625 -11.453125 C 8.015625 -12.640625 11.171875 -13.269531 14.984375 -13.34375 L 14.984375 -14.46875 C 14.984375 -15.707031 14.847656 -16.679688 14.578125 -17.390625 C 14.316406 -18.109375 13.859375 -18.632812 13.203125 -18.96875 C 12.554688 -19.300781 11.640625 -19.46875 10.453125 -19.46875 C 9.097656 -19.46875 7.882812 -19.273438 6.8125 -18.890625 C 5.738281 -18.503906 4.671875 -18.035156 3.609375 -17.484375 L 2.625 -19.546875 C 2.96875 -19.835938 3.601562 -20.222656 4.53125 -20.703125 C 5.457031 -21.179688 6.53125 -21.601562 7.75 -21.96875 C 8.96875 -22.34375 10.1875 -22.53125 11.40625 -22.53125 C 13.28125 -22.53125 14.765625 -22.269531 15.859375 -21.75 C 16.960938 -21.238281 17.753906 -20.410156 18.234375 -19.265625 C 18.710938 -18.128906 18.953125 -16.609375 18.953125 -14.703125 L 18.953125 -1.953125 L 21.296875 -1.953125 L 21.296875 -0.203125 C 20.765625 -0.0664062 20.09375 0.0625 19.28125 0.1875 C 18.476562 0.320312 17.773438 0.390625 17.171875 0.390625 C 16.421875 0.390625 15.914062 0.273438 15.65625 0.046875 C 15.394531 -0.171875 15.265625 -0.664062 15.265625 -1.4375 L 15.265625 -2.734375 C 14.460938 -1.941406 13.484375 -1.210938 12.328125 -0.546875 C 11.179688 0.109375 9.878906 0.4375 8.421875 0.4375 C 6.515625 0.4375 4.929688 -0.109375 3.671875 -1.203125 C 2.410156 -2.304688 1.78125 -3.890625 1.78125 -5.953125 Z M 10.125 -2.265625 C 10.820312 -2.265625 11.617188 -2.472656 12.515625 -2.890625 C 13.421875 -3.316406 14.242188 -3.820312 14.984375 -4.40625 L 14.984375 -11.25 C 12.097656 -11.25 9.914062 -10.800781 8.4375 -9.90625 C 6.96875 -9.019531 6.234375 -7.863281 6.234375 -6.4375 C 6.234375 -5.007812 6.582031 -3.957031 7.28125 -3.28125 C 7.988281 -2.601562 8.9375 -2.265625 10.125 -2.265625 Z M 10.125 -2.265625 "/></g></g></g><g transform="matrix(1, 0, 0, 1, 275, 174)"><g clip-path="url(#cf1568b869)"><g fill="#b5e0df" fill-opacity="1"><g transform="translate(0.0600841, 22.546281)"><g><path d="M 2.9375 -15.46875 L 1.15625 -15.75 L 1.15625 -16.875 L 4.140625 -16.875 C 4.609375 -16.875 5.28125 -16.90625 6.15625 -16.96875 C 7.03125 -17.03125 7.691406 -17.0625 8.140625 -17.0625 C 10.953125 -17.0625 13.039062 -16.351562 14.40625 -14.9375 C 15.78125 -13.519531 16.46875 -11.53125 16.46875 -8.96875 C 16.46875 -7.1875 16.113281 -5.601562 15.40625 -4.21875 C 14.707031 -2.832031 13.722656 -1.75 12.453125 -0.96875 C 11.179688 -0.195312 9.71875 0.1875 8.0625 0.1875 C 7.695312 0.1875 7.078125 0.15625 6.203125 0.09375 C 5.296875 0.03125 4.613281 0 4.15625 0 L 1.046875 0 L 1.046875 -1.109375 L 2.9375 -1.34375 Z M 5.34375 -1.265625 C 5.875 -1.148438 6.554688 -1.09375 7.390625 -1.09375 L 8.0625 -1.09375 C 9.195312 -1.101562 10.195312 -1.390625 11.0625 -1.953125 C 11.9375 -2.515625 12.613281 -3.351562 13.09375 -4.46875 C 13.582031 -5.582031 13.828125 -6.929688 13.828125 -8.515625 C 13.828125 -10.910156 13.304688 -12.726562 12.265625 -13.96875 C 11.234375 -15.207031 9.675781 -15.828125 7.59375 -15.828125 C 7.144531 -15.828125 6.617188 -15.800781 6.015625 -15.75 C 5.765625 -15.695312 5.539062 -15.671875 5.34375 -15.671875 Z M 5.34375 -1.265625 "/></g></g></g><g fill="#b5e0df" fill-opacity="1"><g transform="translate(15.803118, 22.546281)"><g><path d="M 6.609375 0.25 C 4.773438 0.25 3.378906 -0.347656 2.421875 -1.546875 C 1.460938 -2.742188 0.984375 -4.34375 0.984375 -6.34375 C 0.984375 -7.65625 1.226562 -8.8125 1.71875 -9.8125 C 2.21875 -10.8125 2.921875 -11.582031 3.828125 -12.125 C 4.734375 -12.675781 5.757812 -12.953125 6.90625 -12.953125 C 8.3125 -12.953125 9.40625 -12.5625 10.1875 -11.78125 C 10.96875 -11 11.378906 -9.878906 11.421875 -8.421875 C 11.421875 -7.503906 11.367188 -6.800781 11.265625 -6.3125 L 3.453125 -6.3125 C 3.484375 -4.8125 3.832031 -3.601562 4.5 -2.6875 C 5.164062 -1.769531 6.113281 -1.3125 7.34375 -1.3125 C 7.945312 -1.3125 8.578125 -1.421875 9.234375 -1.640625 C 9.890625 -1.859375 10.398438 -2.125 10.765625 -2.4375 L 11.203125 -1.4375 C 10.765625 -0.976562 10.113281 -0.582031 9.25 -0.25 C 8.382812 0.0820312 7.503906 0.25 6.609375 0.25 Z M 8.921875 -7.515625 C 8.972656 -7.835938 9 -8.164062 9 -8.5 C 8.976562 -9.476562 8.765625 -10.25 8.359375 -10.8125 C 7.960938 -11.382812 7.332031 -11.671875 6.46875 -11.671875 C 5.59375 -11.671875 4.894531 -11.351562 4.375 -10.71875 C 3.851562 -10.082031 3.550781 -9.015625 3.46875 -7.515625 Z M 8.921875 -7.515625 "/></g></g></g><g fill="#b5e0df" fill-opacity="1"><g transform="translate(26.684583, 22.546281)"><g><path d="M 4.90625 0.234375 C 4.039062 0.234375 3.394531 0.0351562 2.96875 -0.359375 C 2.550781 -0.753906 2.34375 -1.429688 2.34375 -2.390625 L 2.34375 -11.109375 L 0.703125 -11.109375 L 0.703125 -12.125 C 0.773438 -12.144531 0.984375 -12.195312 1.328125 -12.28125 C 1.679688 -12.375 1.921875 -12.460938 2.046875 -12.546875 C 2.285156 -12.679688 2.472656 -12.953125 2.609375 -13.359375 C 2.734375 -13.648438 2.878906 -14.113281 3.046875 -14.75 C 3.210938 -15.382812 3.3125 -15.757812 3.34375 -15.875 L 4.6875 -15.875 L 4.71875 -12.609375 L 8.515625 -12.609375 L 8.515625 -11.109375 L 4.71875 -11.109375 L 4.71875 -4.140625 C 4.71875 -3.273438 4.742188 -2.664062 4.796875 -2.3125 C 4.859375 -1.96875 4.972656 -1.742188 5.140625 -1.640625 C 5.316406 -1.535156 5.617188 -1.484375 6.046875 -1.484375 C 6.453125 -1.484375 6.898438 -1.535156 7.390625 -1.640625 C 7.890625 -1.742188 8.273438 -1.851562 8.546875 -1.96875 L 8.890625 -0.953125 C 8.523438 -0.679688 7.9375 -0.414062 7.125 -0.15625 C 6.3125 0.101562 5.570312 0.234375 4.90625 0.234375 Z M 4.90625 0.234375 "/></g></g></g><g fill="#b5e0df" fill-opacity="1"><g transform="translate(34.453737, 22.546281)"><g><path d="M 1.015625 -6.34375 C 1.015625 -7.707031 1.296875 -8.882812 1.859375 -9.875 C 2.421875 -10.875 3.160156 -11.632812 4.078125 -12.15625 C 4.992188 -12.6875 5.972656 -12.953125 7.015625 -12.953125 C 8.921875 -12.953125 10.351562 -12.34375 11.3125 -11.125 C 12.28125 -9.914062 12.765625 -8.328125 12.765625 -6.359375 C 12.765625 -4.984375 12.484375 -3.796875 11.921875 -2.796875 C 11.367188 -1.796875 10.632812 -1.035156 9.71875 -0.515625 C 8.800781 -0.00390625 7.816406 0.25 6.765625 0.25 C 4.859375 0.25 3.421875 -0.351562 2.453125 -1.5625 C 1.492188 -2.78125 1.015625 -4.375 1.015625 -6.34375 Z M 6.90625 -1.046875 C 7.945312 -1.046875 8.75 -1.476562 9.3125 -2.34375 C 9.875 -3.207031 10.15625 -4.484375 10.15625 -6.171875 C 10.15625 -7.859375 9.894531 -9.191406 9.375 -10.171875 C 8.863281 -11.160156 8.039062 -11.65625 6.90625 -11.65625 C 5.863281 -11.65625 5.054688 -11.222656 4.484375 -10.359375 C 3.921875 -9.492188 3.640625 -8.210938 3.640625 -6.515625 C 3.640625 -4.835938 3.898438 -3.503906 4.421875 -2.515625 C 4.953125 -1.535156 5.78125 -1.046875 6.90625 -1.046875 Z M 6.90625 -1.046875 "/></g></g></g><g clip-path="url(#d87992e7b5)"><g fill="#b5e0df" fill-opacity="1"><g transform="translate(46.78913, 22.546281)"><g><path d="M 5.546875 -6.296875 L 1.703125 -11.265625 L 0.4375 -11.546875 L 0.4375 -12.609375 L 6.203125 -12.609375 L 6.203125 -11.546875 L 4.609375 -11.265625 L 6.671875 -8.34375 L 7.3125 -7.359375 L 7.921875 -8.34375 L 10.09375 -11.265625 L 8.421875 -11.546875 L 8.421875 -12.609375 L 13.21875 -12.609375 L 13.21875 -11.546875 L 11.859375 -11.265625 L 8.09375 -6.5625 L 12.109375 -1.296875 L 13.421875 -1.09375 L 13.421875 0 L 7.59375 0 L 7.59375 -1.09375 L 9.09375 -1.3125 L 7.015625 -4.390625 L 6.34375 -5.40625 L 5.71875 -4.40625 L 3.546875 -1.3125 L 5.4375 -1.09375 L 5.4375 0 L 0.140625 0 L 0.140625 -1.09375 L 1.65625 -1.3125 Z M 5.546875 -6.296875 "/></g></g></g></g></g></g></svg>